<svg width="49" height="50" viewBox="0 0 49 50" fill="none" xmlns="http://www.w3.org/2000/svg">
<path fill-rule="evenodd" clip-rule="evenodd" d="M48.2199 33.0261C47.8786 32.4671 47.3725 32.0141 46.7635 31.7261C46.1556 31.4371 45.471 31.3241 44.7969 31.4021C45.5046 26.7661 42.2916 21.0621 35.9338 15.7431C36.4263 15.4311 36.7245 14.9071 36.7318 14.3451C36.7308 13.9491 36.5806 13.5661 36.3097 13.2661C36.5806 12.9671 36.7308 12.5851 36.7318 12.1891C36.7245 11.6241 36.4242 11.1001 35.9296 10.7881C37.7062 7.61514 38.1105 5.26914 37.0605 4.13914C36.6058 3.64814 35.7249 3.21614 34.0564 3.70814C33.8863 3.32014 33.67 2.95114 33.4159 2.60814C32.7481 1.53014 31.5333 0.869141 30.2197 0.869141C28.9062 0.869141 27.6913 1.53014 27.0235 2.60814C26.7694 2.95114 26.5552 3.32014 26.3841 3.70814C24.7156 3.21614 23.8336 3.64814 23.38 4.13914C22.33 5.26914 22.7343 7.61514 24.5098 10.7881C24.0153 11.0991 23.715 11.6241 23.7076 12.1891C23.7097 12.5841 23.8588 12.9661 24.1297 13.2661C23.8588 13.5661 23.7087 13.9481 23.7076 14.3441C23.7139 14.9071 24.0132 15.4321 24.5067 15.7451C21.9405 17.8161 19.725 20.2511 17.9347 22.9631C16.4101 25.3761 15.6132 27.6851 15.5533 29.8441C14.5863 30.0381 13.6591 30.3761 12.8044 30.8481L7.61532 33.6771C7.23102 33.1801 6.67242 32.8311 6.04137 32.6931C5.41032 32.5541 4.74882 32.6361 4.17552 32.9221L1.69437 34.1681C1.06122 34.4881 0.585573 35.0311 0.372423 35.6841C0.159273 36.3361 0.226473 37.0411 0.558273 37.6471L6.13692 47.7511C6.46977 48.3581 7.04307 48.8121 7.72977 49.0121C7.99122 49.0901 8.26317 49.1301 8.53722 49.1301C8.97402 49.1301 9.40452 49.0281 9.78987 48.8331L12.271 47.5901C12.8443 47.3021 13.2906 46.8261 13.5279 46.2501C13.7652 45.6751 13.7778 45.0371 13.5646 44.4541C14.749 44.2251 15.9733 44.2681 17.1388 44.5781L25.0768 46.6021C25.8769 46.8101 26.7022 46.9161 27.5317 46.9201C29.1256 46.9131 30.688 46.5011 32.0572 45.7261L46.9515 37.5311C47.7453 37.0931 48.3238 36.3721 48.5611 35.5271C48.7995 34.6831 48.6756 33.7831 48.2188 33.0251L48.2199 33.0261ZM25.6879 14.7521C25.3824 14.7521 25.1146 14.5611 25.1146 14.3441C25.1146 14.1271 25.3824 13.9361 25.6879 13.9361H27.5863V13.9371C27.9675 13.9271 28.2699 13.6301 28.2699 13.2671C28.2699 12.9041 27.9675 12.6061 27.5863 12.5961H25.6879C25.3824 12.5961 25.1146 12.4061 25.1146 12.1891C25.1146 11.9721 25.3824 11.7821 25.6879 11.7821H34.7515C35.0571 11.7821 35.3259 11.9711 35.3259 12.1891C35.3259 12.4071 35.0571 12.5971 34.7515 12.5971L32.8531 12.5961C32.472 12.6061 32.1685 12.9041 32.1685 13.2671C32.1685 13.6301 32.472 13.9271 32.8531 13.9371H34.7505C35.056 13.9371 35.3248 14.1271 35.3248 14.3451C35.3248 14.5621 35.056 14.7521 34.7505 14.7521H25.6879ZM36.0073 5.02814C36.3927 5.44214 36.4935 7.04414 34.5279 10.4421H33.5944C34.2097 9.21114 34.5636 7.87514 34.6329 6.51314C34.6329 6.00114 34.5783 5.49114 34.4691 4.98914C35.2188 4.76814 35.7753 4.77714 36.0073 5.02814ZM30.2208 2.21014C31.8493 2.21014 33.2259 4.18214 33.2259 6.51314C33.1251 7.88814 32.7208 9.22814 32.0362 10.4421H28.4022C27.7197 9.22714 27.3154 7.88814 27.2157 6.51314C27.2157 4.18114 28.5912 2.21014 30.2208 2.21014ZM24.4342 5.02814C24.6663 4.77714 25.2228 4.76814 25.9704 4.99014C25.8622 5.49214 25.8066 6.00114 25.8066 6.51314C25.8769 7.87514 26.2297 9.21114 26.845 10.4421H25.9137C23.9491 7.04514 24.0478 5.44214 24.4342 5.02814ZM26.2423 16.0931H34.2013C37.7682 18.9411 40.4635 21.9631 41.9923 24.8451C43.3741 27.4451 43.8057 29.8951 43.246 31.9551L34.1058 36.9841C34.2066 36.1081 33.9756 35.2281 33.4548 34.5001C32.934 33.7731 32.158 33.2471 31.2666 33.0171L19.8237 30.0071C18.8965 29.7581 17.9337 29.6481 16.9708 29.6791C17.1861 25.5571 20.5188 20.6601 26.2423 16.0931ZM12.2521 45.6761C12.1503 45.9891 11.9224 46.2501 11.6169 46.4021L9.13677 47.6481C8.50152 47.9641 7.71822 47.7321 7.38327 47.1291L1.80567 37.0241C1.47282 36.4191 1.71642 35.6711 2.35062 35.3531L4.83072 34.1081C5.01552 34.0151 5.22132 33.9661 5.43027 33.9661C5.56152 33.9661 5.69277 33.9851 5.81877 34.0231C6.14742 34.1191 6.42147 34.3371 6.58107 34.6261L12.1629 44.7331C12.3235 45.0231 12.355 45.3631 12.2521 45.6761ZM47.2056 35.1821C47.0659 35.6851 46.7226 36.1131 46.2501 36.3721L31.3558 44.5671C29.5761 45.5781 27.4372 45.8461 25.4422 45.3091L17.5042 43.2861C16.0069 42.8871 14.4267 42.8661 12.9178 43.2241L8.29782 34.8501L13.5037 32.0131C15.2971 31.0041 17.4486 30.7451 19.4488 31.3001L30.8949 34.3101C31.7359 34.5351 32.389 35.1681 32.6116 35.9721C32.8342 36.7771 32.5938 37.6331 31.9785 38.2241C31.3632 38.8151 30.4654 39.0511 29.6191 38.8451L20.8086 36.5951C20.4316 36.4991 20.0463 36.7121 19.9455 37.0711C19.8447 37.4291 20.0683 37.7971 20.4442 37.8921L29.2558 40.1421C29.9373 40.3131 30.6555 40.3051 31.3327 40.1181C32.01 39.9301 32.6211 39.5711 33.1009 39.0791C33.1219 39.0711 33.1429 39.0611 33.1639 39.0511L44.1952 32.9801C44.6677 32.7201 45.2284 32.6491 45.7545 32.7831C46.2816 32.9171 46.7299 33.2461 47.0029 33.6961C47.2749 34.1461 47.3473 34.6811 47.2056 35.1821ZM9.57357 44.3841C9.66702 44.5421 9.69012 44.7291 9.63657 44.9031C9.58302 45.0771 9.45702 45.2231 9.28902 45.3071C9.11997 45.3921 8.92257 45.4081 8.74092 45.3511C8.56032 45.2941 8.41122 45.1701 8.32827 45.0061L7.47567 43.4611C7.31397 43.1361 7.45047 42.7471 7.78437 42.5801C8.11827 42.4131 8.53197 42.5271 8.71992 42.8381L9.57357 44.3841Z" fill="#F47722"/>
</svg>
