<svg width="42" height="35" viewBox="0 0 42 35" fill="none" xmlns="http://www.w3.org/2000/svg">
<path fill-rule="evenodd" clip-rule="evenodd" d="M37.9317 34.5902H3.69435C1.85055 34.5902 0.350098 33.1612 0.350098 31.4042V4.07418C0.350098 2.05318 2.0763 0.40918 4.19835 0.40918L34.4079 0.41018C34.8321 0.41018 35.2342 0.79218 35.2342 1.19718V6.16318H37.9317C39.7765 6.16318 41.2759 7.59218 41.2759 9.34818V31.4042C41.2759 33.1612 39.7765 34.5902 37.9317 34.5902ZM33.5805 1.98518H4.19835C2.96775 1.98518 2.00385 2.90218 2.00385 4.07418C2.00385 5.24518 2.96775 6.16318 4.19835 6.16318H33.5805V1.98518ZM39.6222 16.8482H24.8413C24.4455 16.8482 24.1578 17.1212 24.1578 17.4992V23.2522C24.1578 23.6302 24.4455 23.9032 24.8413 23.9032H39.6222V16.8482ZM39.6222 25.4802H24.8413C23.574 25.4802 22.503 24.4602 22.503 23.2532V17.4992C22.503 16.2932 23.574 15.2732 24.8413 15.2732H39.6222V9.34818C39.6222 8.44518 38.8798 7.73818 37.9317 7.73818C34.8342 7.73818 31.4437 7.73818 27.8958 7.73718C24.0003 7.73518 19.9158 7.73418 15.8187 7.73418C11.9043 7.73418 7.97835 7.73518 4.1973 7.73818C3.53055 7.73818 2.86485 7.56518 2.27475 7.23718L2.00385 7.08718V31.4042C2.00385 32.3072 2.74725 33.0142 3.69435 33.0142H37.9317C38.8798 33.0142 39.6222 32.3072 39.6222 31.4042V25.4802ZM28.1625 19.3732C28.7463 19.3732 29.2219 19.8262 29.2219 20.3822C29.2219 20.9382 28.7463 21.3902 28.1625 21.3902C27.5787 21.3902 27.1041 20.9382 27.1041 20.3822C27.1041 19.8262 27.5787 19.3732 28.1625 19.3732Z" fill="#F58421"/>
</svg>
