<svg width="14" height="14" viewBox="0 0 14 14" fill="none" xmlns="http://www.w3.org/2000/svg">
<path d="M10.7799 13.3735L10.084 13.7573C6.01295 15.8696 -1.04713 3.5525 2.92128 1.225L3.5892 0.853417L5.7557 4.62583L5.09128 4.9945C3.88553 5.72075 6.70128 10.6569 7.93737 9.97908L8.6152 9.60458L10.7799 13.3735ZM5.05862 0L4.07862 0.56875L6.24512 4.34058L7.2257 3.77183L5.05862 0ZM10.0829 8.74825L9.10286 9.317L11.2694 13.0894L12.2499 12.5207L10.0829 8.74825Z" fill="#3F4347"/>
<path d="M4.07862 0.56875L5.05862 0L7.2257 3.77183L6.24512 4.34058L4.07862 0.56875Z" fill="#F2BE47"/>
<path d="M9.10286 9.317L10.0829 8.74825L12.2499 12.5207L11.2694 13.0894L9.10286 9.317Z" fill="#F2BE47"/>
</svg>
