<svg width="36" height="44" viewBox="0 0 36 44" fill="none" xmlns="http://www.w3.org/2000/svg">
<path fill-rule="evenodd" clip-rule="evenodd" d="M18.6301 1.99284V36.7708C18.6301 38.0118 19.1181 39.1898 19.9961 40.0668C20.8751 40.9438 22.0541 41.4318 23.2971 41.4318C24.5391 41.4318 25.7191 40.9438 26.5971 40.0668C27.4761 39.1898 27.9641 38.0118 27.9641 36.7708C27.9641 35.5298 27.4761 34.3528 26.5971 33.4748C25.7191 32.5968 24.5401 32.1088 23.2971 32.1088C22.7511 32.1088 22.3081 31.6668 22.3081 31.1208C22.3081 30.5748 22.7511 30.1328 23.2971 30.1328C25.0651 30.1328 26.7471 30.8288 27.9961 32.0778C29.2461 33.3258 29.9431 35.0048 29.9431 36.7708C29.9431 38.5368 29.2461 40.2158 27.9961 41.4638C26.7471 42.7118 25.0651 43.4078 23.2971 43.4078C21.5291 43.4078 19.8481 42.7128 18.5981 41.4638C17.3481 40.2158 16.6511 38.5368 16.6511 36.7708V1.99284C16.6511 1.44784 17.0941 1.00484 17.6411 1.00484C18.1871 1.00484 18.6301 1.44784 18.6301 1.99284ZM28.7941 26.7118C30.0371 26.7118 31.2161 26.2248 32.0951 25.3468C32.9731 24.4698 33.4611 23.2928 33.4611 22.0508C33.4611 20.8098 32.9731 19.6328 32.0951 18.7548C31.2161 17.8768 30.0371 17.3898 28.7941 17.3898C28.2481 17.3898 27.8051 16.9468 27.8051 16.4018C27.8051 15.8558 28.2481 15.4138 28.7941 15.4138C30.5621 15.4138 32.2431 16.1088 33.4931 17.3578C34.7431 18.6058 35.4401 20.2848 35.4401 22.0508C35.4401 23.8168 34.7431 25.4958 33.4931 26.7448C32.2431 27.9928 30.5621 28.6878 28.7941 28.6878C27.0261 28.6878 25.3441 27.9928 24.0951 26.7448C22.8451 25.4958 22.1481 23.8168 22.1481 22.0508V1.57784C22.1481 1.03284 22.5921 0.589844 23.1381 0.589844C23.6841 0.589844 24.1271 1.03284 24.1271 1.57784V22.0508C24.1271 23.2918 24.6161 24.4698 25.4941 25.3468C26.3731 26.2248 27.5511 26.7118 28.7941 26.7118ZM13.8511 1.57884V22.0518C13.8511 23.8168 13.1541 25.4968 11.9041 26.7448C10.6541 27.9928 8.97308 28.6888 7.20508 28.6888C5.43708 28.6888 3.75508 27.9928 2.50608 26.7448C1.25608 25.4968 0.559082 23.8168 0.559082 22.0518C0.559082 20.2858 1.25608 18.6058 2.50608 17.3578C3.75508 16.1098 5.43708 15.4138 7.20508 15.4138C7.75108 15.4138 8.19408 15.8558 8.19408 16.4018C8.19408 16.9468 7.75108 17.3898 7.20508 17.3898C5.96208 17.3898 4.78308 17.8768 3.90508 18.7548C3.02608 19.6328 2.53808 20.8098 2.53808 22.0508C2.53808 23.2918 3.02608 24.4698 3.90508 25.3468C4.78308 26.2248 5.96208 26.7118 7.20508 26.7118C8.44808 26.7118 9.62708 26.2248 10.5061 25.3468C11.3841 24.4698 11.8721 23.2928 11.8721 22.0508V1.57884C11.8721 1.03284 12.3151 0.590844 12.8621 0.590844C13.4081 0.590844 13.8511 1.03284 13.8511 1.57884Z" fill="#F47722"/>
</svg>
