<svg width="33" height="45" viewBox="0 0 33 45" fill="none" xmlns="http://www.w3.org/2000/svg">
<path fill-rule="evenodd" clip-rule="evenodd" d="M10.171 34.143V33.421H9.347C8.447 33.421 8.484 33.424 8.419 33.362C8.403 33.346 8.381 33.317 8.37 33.295C8.352 33.259 8.351 33.228 8.351 32.734C8.351 32.285 8.353 32.204 8.366 32.172C8.387 32.122 8.417 32.09 8.468 32.063C8.509 32.04 8.512 32.04 9.339 32.037L10.171 32.034V31.186H8.518L8.464 31.159C8.429 31.141 8.401 31.117 8.383 31.09L8.356 31.048L8.353 30.441C8.349 29.759 8.346 29.778 8.424 29.711C8.447 29.691 8.483 29.67 8.503 29.664C8.526 29.658 8.848 29.654 9.355 29.654H10.171V27.359C10.171 25.149 10.172 25.063 10.189 25.022C10.212 24.972 10.274 24.917 10.324 24.903C10.374 24.889 14.329 24.89 14.526 24.904C15.144 24.948 15.678 25.122 16.127 25.426C16.322 25.559 16.419 25.638 16.588 25.809C16.978 26.203 17.222 26.637 17.353 27.171C17.433 27.5 17.455 27.715 17.448 28.117C17.444 28.309 17.436 28.461 17.426 28.536C17.326 29.257 17.051 29.817 16.56 30.301C16.328 30.53 16.1 30.694 15.815 30.838C15.486 31.004 15.182 31.096 14.76 31.157C14.607 31.179 14.575 31.179 13.207 31.185L11.812 31.191L11.805 32.034L15.462 32.04L15.513 32.066C15.543 32.082 15.575 32.11 15.594 32.136L15.625 32.181L15.628 32.705C15.63 33.065 15.628 33.242 15.62 33.269C15.607 33.315 15.558 33.373 15.513 33.399C15.484 33.415 15.349 33.417 13.646 33.421L11.811 33.427L11.805 34.156C11.798 34.822 11.798 34.888 11.782 34.918C11.758 34.962 11.7 35.009 11.652 35.024C11.596 35.041 10.361 35.039 10.314 35.022H10.316C10.265 35.003 10.211 34.955 10.19 34.908C10.172 34.868 10.171 34.826 10.171 34.143ZM13.006 29.654C13.769 29.654 14.245 29.65 14.312 29.643L14.313 29.644C14.615 29.613 14.882 29.521 15.096 29.376C15.572 29.052 15.8 28.55 15.763 27.907C15.749 27.669 15.701 27.484 15.601 27.279C15.525 27.124 15.439 27.008 15.302 26.875C15.032 26.612 14.707 26.472 14.276 26.435C14.186 26.428 13.768 26.425 12.978 26.427L11.812 26.43L11.806 29.654H13.006ZM31.785 38.487L26.279 41.666V42.518C26.279 43.8 25.241 44.837 23.96 44.837H2.319C1.038 44.837 0 43.8 0 42.518V25.511C0 25.085 0.346 24.738 0.773 24.738C1.199 24.738 1.546 25.085 1.546 25.511V42.518C1.546 42.945 1.892 43.291 2.319 43.291H23.96C24.387 43.291 24.733 42.945 24.733 42.518V17.781C24.733 17.531 24.613 17.297 24.409 17.151L13.588 9.421C13.32 9.229 12.959 9.229 12.691 9.421L9.284 11.854C10.117 13.097 11.533 13.915 13.14 13.915C14.419 13.915 15.459 14.954 15.459 16.235C15.459 17.514 14.419 18.554 13.14 18.554C9.978 18.554 7.185 16.969 5.51 14.551L1.87 17.151C1.666 17.297 1.546 17.531 1.546 17.781V22.419C1.546 22.846 1.199 23.192 0.773 23.192C0.346 23.192 0 22.846 0 22.419V17.781C0 17.031 0.362 16.329 0.971 15.894L4.736 13.204C4.177 12.011 3.865 10.68 3.865 9.277C3.865 4.157 8.021 0 13.14 0C18.259 0 22.415 4.157 22.415 9.277C22.415 10.68 22.103 12.011 21.544 13.204L25.308 15.893C25.918 16.328 26.279 17.031 26.279 17.78V24.309L32.634 35.319C33.275 36.428 32.895 37.846 31.785 38.487ZM11.791 8.164C12.598 7.588 13.681 7.588 14.488 8.164L17.637 10.414C17.728 10.05 17.777 9.67 17.777 9.277C17.777 6.718 15.699 4.64 13.14 4.64C10.58 4.64 8.502 6.718 8.502 9.277C8.502 9.67 8.55 10.05 8.643 10.414L11.791 8.164ZM13.14 1.547C8.874 1.547 5.41 5.011 5.41 9.277C5.41 13.544 8.874 17.008 13.14 17.008C13.566 17.008 13.913 16.662 13.913 16.235C13.913 15.808 13.566 15.462 13.14 15.462C9.727 15.462 6.956 12.691 6.956 9.277C6.956 5.865 9.727 3.093 13.14 3.093C16.552 3.093 19.323 5.865 19.323 9.277C19.323 10.008 19.196 10.71 18.963 11.361L20.259 12.288C20.652 11.362 20.869 10.345 20.869 9.277C20.869 5.011 17.405 1.547 13.14 1.547ZM31.295 36.093L26.279 27.402V39.881L31.013 37.149C31.383 36.934 31.51 36.462 31.295 36.093Z" fill="#F47722"/>
</svg>
