<svg width="49" height="33" viewBox="0 0 49 33" fill="none" xmlns="http://www.w3.org/2000/svg">
<path fill-rule="evenodd" clip-rule="evenodd" d="M6.51006 32.6332C4.95306 32.6332 3.68606 31.3662 3.68606 29.8082V20.7292L3.42306 20.6512C2.77906 20.4622 1.87706 20.0792 1.23006 19.3242C0.393065 18.3392 -0.00793542 17.1092 0.131065 15.9512L0.132065 15.9382C0.322065 13.7022 2.31006 11.9502 4.65706 11.9502H6.26006V7.87519C6.26006 6.12819 7.33707 4.51819 9.21307 3.45919C11.6831 2.04819 16.2811 0.367188 24.1681 0.367188C30.3881 0.367188 35.4391 1.39119 39.1801 3.41119C41.0511 4.46719 42.1281 6.07719 42.1281 7.82519V11.8992H43.7311C46.0301 11.8992 48.0171 13.6542 48.2561 15.8952L48.2571 15.9002C48.3451 17.1182 47.9281 18.4062 47.1631 19.2672C46.5761 19.9512 45.8271 20.4082 44.9901 20.5932L44.7021 20.6582V29.7572C44.7021 31.3142 43.4351 32.5812 41.8781 32.5812H39.6131C38.3701 32.5812 37.2911 31.8152 36.9261 30.6752L36.3531 28.9572L36.3471 28.9432C36.1211 28.4162 35.6681 28.1022 35.1341 28.1022H13.2551C12.6831 28.1022 12.1801 28.4622 12.0281 28.9782L11.4641 30.6712C11.0521 31.8612 9.99607 32.6332 8.77606 32.6332H6.51006ZM1.66606 16.0712C1.55706 16.8562 1.80906 17.6332 2.37506 18.2642C2.91606 18.8642 3.69106 19.2092 4.50206 19.2092C4.91706 19.2092 5.26706 19.5602 5.26706 19.9742V29.8592C5.26706 30.5212 5.84806 31.1022 6.51006 31.1022H8.77606C9.34706 31.1022 9.85006 30.7432 10.0021 30.2262L10.5661 28.5342C10.9781 27.3432 12.0331 26.5722 13.2541 26.5722H35.0821C36.3241 26.5722 37.4041 27.3392 37.7691 28.4792L38.3421 30.1972L38.3481 30.2112C38.5741 30.7372 39.0271 31.0512 39.5611 31.0512H41.8261C42.4881 31.0512 43.0691 30.4702 43.0691 29.8082V19.9752C43.0691 19.5602 43.4191 19.2102 43.8341 19.2102C44.6451 19.2102 45.4201 18.8652 45.9601 18.2642L46.2301 17.9642L46.2071 17.9472C46.5991 17.3632 46.7511 16.6642 46.6181 16.0082C46.4881 14.6122 45.1521 13.4802 43.6281 13.4802H40.2811C39.1991 13.4802 38.3181 14.3612 38.3181 15.4442V19.3052C38.3181 19.9832 37.7671 20.5332 37.0891 20.5332H11.1941C10.5171 20.5332 9.96606 19.9832 9.96606 19.3052V15.4952C9.96606 14.4122 9.08506 13.5312 8.00306 13.5312H4.65706C3.12806 13.5312 1.78906 14.6702 1.66606 16.0712ZM24.1681 1.89619C16.6341 1.89619 12.2961 3.46219 9.98407 4.77619C8.64106 5.55919 7.84106 6.71819 7.84106 7.87619V11.9322L8.19106 11.9502C10.0731 12.0442 11.5481 13.5792 11.5481 15.4442V18.9012H36.8401V15.3932C36.8401 13.5272 38.3151 11.9932 40.1971 11.8982L40.5461 11.8812V7.82519C40.5461 6.65119 39.7671 5.56819 38.3511 4.77519C36.0411 3.46219 31.7031 1.89619 24.1681 1.89619Z" fill="#F47722"/>
</svg>
