<svg width="44" height="38" viewBox="0 0 44 38" fill="none" xmlns="http://www.w3.org/2000/svg">
<path fill-rule="evenodd" clip-rule="evenodd" d="M26.695 25.55C24.434 25.55 22.594 23.708 22.594 21.444C22.594 19.18 24.434 17.338 26.695 17.338C27.271 17.338 27.827 17.456 28.35 17.689L31.851 14.18C32.038 13.993 32.287 13.889 32.551 13.889H32.565C32.821 13.894 33.063 13.995 33.245 14.175C33.432 14.359 33.536 14.606 33.538 14.87C33.539 15.131 33.435 15.386 33.251 15.571L29.919 18.915C30.485 19.637 30.796 20.532 30.796 21.444C30.796 23.708 28.956 25.55 26.695 25.55ZM26.696 19.31C25.503 19.31 24.569 20.248 24.569 21.444C24.569 22.641 25.503 23.578 26.696 23.578C27.887 23.578 28.82 22.641 28.82 21.444C28.82 20.248 27.887 19.31 26.696 19.31ZM26.696 37.95C22.029 37.95 17.565 35.951 14.448 32.466C14.086 32.063 14.119 31.439 14.521 31.075C14.703 30.913 14.938 30.822 15.181 30.822C15.2 30.822 15.219 30.823 15.238 30.824C15.498 30.839 15.747 30.959 15.92 31.154C18.662 34.219 22.589 35.976 26.695 35.976C34.681 35.976 41.178 29.457 41.178 21.443C41.178 14.855 36.754 9.079 30.421 7.396C30.421 7.396 30.404 7.392 30.274 7.358C29.108 7.062 27.903 6.911 26.695 6.911C22.589 6.911 18.661 8.669 15.919 11.734C15.746 11.929 15.497 12.049 15.237 12.063C15.219 12.064 15.2 12.065 15.181 12.065C14.937 12.065 14.703 11.975 14.522 11.813C14.325 11.636 14.209 11.394 14.195 11.13C14.182 10.869 14.274 10.609 14.449 10.416C16.399 8.236 18.902 6.614 21.689 5.722V1.972H19.759C19.494 1.972 19.245 1.87 19.059 1.683C18.873 1.499 18.768 1.244 18.769 0.982C18.771 0.718 18.874 0.471 19.061 0.286C19.247 0.101 19.494 0 19.757 0H33.637C34.178 0.002 34.62 0.442 34.622 0.982C34.623 1.242 34.519 1.497 34.335 1.68C34.149 1.868 33.902 1.971 33.638 1.972H31.702V5.719C34.924 6.752 37.821 8.82 39.863 11.547C42.016 14.422 43.154 17.844 43.154 21.443C43.154 30.545 35.771 37.95 26.696 37.95ZM29.727 1.972H23.663L23.664 5.222C24.667 5.033 25.686 4.938 26.696 4.938C27.711 4.938 28.73 5.033 29.727 5.22V1.972ZM17.881 15.143C18.069 15.331 18.172 15.58 18.171 15.845C18.17 16.104 18.064 16.358 17.879 16.541C17.692 16.726 17.445 16.827 17.183 16.827H4.47101C3.92901 16.825 3.48801 16.384 3.48601 15.845C3.48501 15.586 3.58901 15.331 3.77201 15.146C3.95801 14.959 4.20601 14.856 4.46901 14.855H17.18C17.446 14.855 17.695 14.957 17.881 15.143ZM14.4 20.746C14.586 20.933 14.687 21.182 14.687 21.445C14.684 21.985 14.243 22.426 13.703 22.427H0.987007C0.725007 22.427 0.479007 22.325 0.292007 22.142C0.105007 21.956 0.00100721 21.708 7.21365e-06 21.445C-0.000992786 21.18 0.102007 20.931 0.290007 20.744C0.476007 20.557 0.724007 20.455 0.988007 20.455H13.702C13.966 20.456 14.214 20.559 14.4 20.746ZM4.46901 26.055H17.18C17.445 26.055 17.694 26.158 17.881 26.344C18.065 26.528 18.171 26.784 18.17 27.045C18.17 27.305 18.064 27.559 17.878 27.742C17.693 27.927 17.446 28.029 17.182 28.029H4.47001C3.92801 28.027 3.48601 27.585 3.48501 27.044C3.48401 26.782 3.58601 26.534 3.77101 26.347C3.95701 26.159 4.20501 26.056 4.46901 26.055Z" fill="#F47722"/>
</svg>
