<svg width="25" height="25" viewBox="0 0 25 25" fill="none" xmlns="http://www.w3.org/2000/svg">
<path fill-rule="evenodd" clip-rule="evenodd" d="M24.6924 17.3154C24.6389 18.4641 24.466 19.3502 24.1321 20.1892C23.8117 20.9921 23.3931 21.6195 22.7747 22.2229C22.1557 22.8273 21.5125 23.2351 20.6901 23.5471C19.83 23.8734 18.9212 24.042 17.7436 24.0942C16.3815 24.1544 15.9283 24.1688 11.9283 24.1688C8.9866 24.1688 8.53276 24.1544 7.17065 24.0942C5.99372 24.042 5.08486 23.8734 4.22479 23.5471C3.40235 23.2351 2.75921 22.8268 2.14018 22.2229C1.52114 21.6195 1.10257 20.9921 0.782767 20.1892C0.448853 19.3502 0.276017 18.4641 0.22252 17.3154C0.160205 15.9854 0.145508 15.5421 0.145508 12.1579C0.145508 8.77477 0.160205 8.33145 0.22252 7.00092C0.276017 5.85219 0.448853 4.96555 0.782767 4.12709C1.10257 3.32419 1.52114 2.69677 2.14018 2.09345C2.75921 1.48955 3.40235 1.08064 4.22479 0.769225C5.08486 0.443474 5.99372 0.274864 7.17124 0.222102C8.5404 0.16131 8.99542 0.146973 11.9283 0.146973C15.9194 0.146973 16.3745 0.16131 17.7436 0.222102C18.9212 0.274864 19.83 0.443474 20.6901 0.769225C21.5125 1.08064 22.1557 1.48955 22.7747 2.09345C23.3931 2.69677 23.8117 3.32419 24.1321 4.12709C24.466 4.96613 24.6389 5.85219 24.6924 7.00092C24.7547 8.3303 24.7694 8.77305 24.7694 12.1579C24.7694 15.5433 24.7547 15.986 24.6924 17.3154ZM23.5178 7.05368C23.456 5.74609 23.2274 5.02463 23.0357 4.54231C22.7741 3.88622 22.4472 3.39702 21.9428 2.90495C21.439 2.41289 20.937 2.09402 20.2639 1.83881C19.7689 1.65127 19.0293 1.42761 17.6895 1.36854C16.3221 1.30775 15.9118 1.29455 11.9283 1.29455C9.00248 1.29455 8.59273 1.30775 7.22473 1.36854C5.88555 1.42761 5.14541 1.65127 4.651 1.83881C3.97847 2.09345 3.47642 2.41231 2.97202 2.90495C2.46704 3.39702 2.14018 3.88737 1.87916 4.54231C1.68692 5.02577 1.45883 5.74724 1.3971 7.05368C1.33478 8.3888 1.32126 8.78853 1.32126 12.1579C1.32126 15.5272 1.33478 15.9269 1.3971 17.2626C1.45883 18.5691 1.68692 19.2911 1.87916 19.7734C2.14018 20.4295 2.46704 20.9193 2.97202 21.4119C3.47642 21.904 3.97906 22.2229 4.651 22.4775C5.14541 22.665 5.88496 22.8881 7.22473 22.9478C8.59449 23.0086 9.00483 23.0212 11.9283 23.0212C15.9095 23.0212 16.3198 23.0086 17.6895 22.9478C19.0299 22.8881 19.7695 22.665 20.2639 22.4775C20.9364 22.2223 21.4384 21.9034 21.9428 21.4119C22.4472 20.9199 22.7741 20.4295 23.0351 19.7734C23.2274 19.2917 23.456 18.5714 23.5178 17.2626C23.5801 15.9212 23.5936 15.5198 23.5936 12.1579C23.5936 8.79599 23.5801 8.39511 23.5178 7.05368ZM19.3356 7.42245C18.2198 7.42245 17.3121 6.53638 17.3121 5.44845C17.3121 4.35993 18.2198 3.47444 19.3356 3.47444C20.4514 3.47444 21.3591 4.35993 21.3591 5.44845C21.3591 6.53638 20.4514 7.42245 19.3356 7.42245ZM19.3356 4.40524C18.746 4.40524 18.2663 4.87322 18.2663 5.44845C18.2663 6.02367 18.746 6.49108 19.3356 6.49108C19.9247 6.49108 20.4044 6.02367 20.4044 5.44845C20.4044 4.87322 19.9247 4.40524 19.3356 4.40524ZM11.9283 18.0541C9.12476 18.0541 6.41346 15.4091 6.41346 12.1579C6.41346 8.90725 9.12476 6.26225 11.9283 6.26225C15.7901 6.26225 18.5014 8.90725 18.5014 12.1579C18.5014 15.4091 15.7901 18.0541 11.9283 18.0541ZM11.9283 7.40983C9.77319 7.40983 7.58981 9.53982 7.58981 12.1579C7.58981 14.7765 9.77319 16.9065 11.9283 16.9065C15.1411 16.9065 17.3251 14.7765 17.3251 12.1579C17.3251 9.53982 15.1411 7.40983 11.9283 7.40983Z" fill="white"/>
</svg>
