<svg width="28" height="25" viewBox="0 0 28 25" fill="none" xmlns="http://www.w3.org/2000/svg">
<path fill-rule="evenodd" clip-rule="evenodd" d="M27.9299 1.14258C27.8394 0.809943 27.6224 0.524338 27.3244 0.345979C27.0892 0.219808 26.8264 0.150987 26.5584 0.146973H26.4778C26.235 0.146973 25.9534 0.226116 25.6301 0.345979C25.3885 0.425696 23.8953 1.06114 21.5561 2.01774C19.2563 2.9342 16.3117 4.16838 13.3664 5.36357L1.70701 10.142C1.4795 10.2217 1.26316 10.3284 1.06152 10.4603C0.880451 10.5991 0.718196 10.7597 0.578281 10.9386C0.497154 11.0975 0.335488 11.3762 0.376051 11.7346C0.417203 12.1728 0.698796 12.5306 1.14323 12.8495C1.32606 12.9866 1.53064 13.0944 1.74757 13.1678L7.31536 14.9996C7.47644 15.6367 8.9285 20.4949 9.25124 21.5702C9.41291 22.0875 9.57458 22.446 9.77622 22.6857C9.83853 22.7952 9.93847 22.8795 10.0578 22.9243C10.0901 22.9547 10.1348 22.9696 10.1795 22.9644H10.2201C10.5846 23.1129 11.0019 23.051 11.3065 22.8044L15.0983 19.4976L20.786 23.9973L20.8271 24.038C21.1434 24.1797 21.4885 24.2479 21.8359 24.2364C22.2716 24.2318 22.6948 24.0931 23.0464 23.8384C23.3209 23.6102 23.5414 23.3246 23.6907 23.0017V22.9627L27.8493 2.29704C28.011 1.85888 28.0504 1.4603 27.9299 1.14258ZM22.4838 23.0441C22.3351 23.164 22.1516 23.2334 21.96 23.2426C21.7525 23.2374 21.5473 23.1972 21.3539 23.1233L12.5187 16.1523C15.1818 13.8055 23.3303 6.51803 23.5731 5.36357C23.5731 5.20413 23.5731 5.08484 23.4926 4.96498C23.3827 4.76483 23.1916 4.6203 22.9676 4.56697H22.7666C22.6413 4.56812 22.5185 4.59564 22.4044 4.64669H22.3633L7.63811 14.0441L2.03034 12.2118C1.91747 12.1544 1.8093 12.0879 1.70701 12.0139C1.55298 11.925 1.43835 11.7828 1.38485 11.6148C1.38485 11.5758 1.38485 11.5758 1.42483 11.4949C1.46421 11.4146 1.54593 11.3762 1.66703 11.297C1.86926 11.1772 2.07032 11.0975 2.11088 11.0573C2.11088 11.0573 7.87973 8.6681 13.7703 6.27945C16.7144 5.08484 19.6602 3.85009 21.96 2.9342C24.2186 2.01774 25.8723 1.34158 26.0346 1.26186C26.1962 1.18272 26.3567 1.18157 26.5178 1.14258H26.5584C26.6407 1.13856 26.723 1.15233 26.8 1.18157C26.86 1.2177 26.9029 1.27506 26.9217 1.34158C26.9617 1.4213 26.9617 1.6593 26.8805 2.05674L22.8065 22.6432C22.7213 22.7935 22.6125 22.9288 22.4838 23.0441ZM14.3352 18.8621L11.31 21.4905L12.1571 17.1112L14.3352 18.8621ZM21.9188 6.15959C20.1035 7.91164 14.7791 12.7732 11.4299 15.8358C11.3899 15.8765 11.2289 16.0743 11.2289 16.1936L10.26 21.3701C10.26 21.3311 10.26 21.3311 10.2201 21.2903C9.9373 20.3745 8.72686 16.2728 8.32416 14.8797L21.9188 6.15959Z" fill="white"/>
</svg>
