<svg width="22" height="27" viewBox="0 0 22 27" fill="none" xmlns="http://www.w3.org/2000/svg">
<path fill-rule="evenodd" clip-rule="evenodd" d="M21.5992 3.03957C21.4434 2.93806 21.287 2.93806 21.1313 2.9891C19.832 3.54598 18.4805 3.14051 17.7004 2.1277C17.3365 1.67176 17.1284 1.06385 17.1284 0.506404C17.1284 0.354999 17.0767 0.253489 16.9726 0.151979C16.8686 0.0510419 16.7645 0 16.6087 0H11.3061C10.9945 0 10.7864 0.202447 10.7864 0.506404V18.4898V18.5907C10.6823 19.5026 9.95452 20.1615 9.01862 20.1615C8.03099 20.1615 7.19914 19.3512 7.19914 18.3883C7.19914 17.4764 7.8752 16.7675 8.8111 16.666C9.07094 16.6156 9.27846 16.4125 9.27846 16.1596V10.2835C9.27846 9.97955 9.07094 9.77653 8.75878 9.77653H8.65531C3.87234 9.97955 0.181641 13.728 0.181641 18.3883C0.181641 23.1501 4.13277 27 9.01921 27C13.5941 27 17.4406 23.5555 17.805 19.1482C17.8568 19.0977 17.8568 18.9968 17.8568 18.9457V9.16861C19.0008 9.4221 20.1965 9.52304 21.444 9.32059C21.7039 9.27012 21.8596 9.06767 21.8596 8.81419V3.44447C21.8596 3.29249 21.7562 3.14051 21.5998 3.039L21.5992 3.03957ZM20.8191 8.40929C19.6239 8.5108 18.5322 8.40929 17.4406 8.05487C17.2842 8.00382 17.1284 8.05487 16.9726 8.10533C16.8168 8.20684 16.7645 8.35825 16.7645 8.5108V18.7433C16.7645 18.7943 16.7645 18.8442 16.7128 18.8952C16.4529 22.8467 13.0215 25.9872 8.96689 25.9872C4.65186 25.9872 1.16869 22.5932 1.16869 18.3888C1.16869 14.4374 4.18391 11.1954 8.18677 10.8404V15.7542C6.99103 16.1086 6.10686 17.173 6.10686 18.3883C6.10686 19.908 7.40666 21.1743 8.9663 21.1743C10.3702 21.1743 11.5659 20.1615 11.7734 18.8442C11.8257 18.7937 11.8257 18.6922 11.8257 18.6418V1.01281H16.1402C16.2442 1.67176 16.5041 2.22864 16.868 2.73504C17.7515 3.9004 19.3112 4.50832 20.8191 4.15389V8.40929Z" fill="white"/>
</svg>
