<svg width="39" height="24" viewBox="0 0 39 24" fill="none" xmlns="http://www.w3.org/2000/svg">
<path fill-rule="evenodd" clip-rule="evenodd" d="M38.8029 21.4093C38.1439 19.398 34.8523 16.0717 33.2704 14.4728C32.7036 13.8998 32.425 13.6171 32.2962 13.4468L32.2851 13.4318L32.2692 13.4204C32.1793 13.3544 32.1258 13.269 32.1111 13.1669C32.0917 13.031 32.1422 12.8698 32.2469 12.7362L32.2522 12.7293L32.4579 12.3697C33.6554 10.8293 37.409 5.26859 38.0169 3.07838L38.021 3.06175V3.05085L38.0428 2.98031L38.0486 2.95508L38.0551 2.93328L38.0574 2.92812L38.061 2.91665C38.2867 2.11833 38.0851 1.62799 37.8752 1.35729C37.5419 0.928885 36.9999 0.720703 36.2192 0.720703H32.0934C30.9788 0.720703 30.1664 1.24144 29.7431 2.22787C28.8754 4.37106 26.3216 9.05716 24.3205 10.7668L23.3593 11.588C23.3487 11.5972 23.337 11.6018 23.3241 11.6018C23.3029 11.6018 23.2688 11.5875 23.2682 11.549L23.2365 10.3051C23.1777 7.99503 23.2206 6.19652 23.2482 5.0065L23.257 4.65838C23.297 3.15121 23.3352 1.72778 22.7138 1.10782C22.4528 0.847447 22.0513 0.720703 21.4858 0.720703H15.0021C14.3619 0.720703 13.7587 1.07169 13.5 1.59415C13.2202 2.16077 13.3877 2.86389 13.9721 3.57503C15.0814 4.92736 15.0367 5.99407 14.9633 7.76563C14.9203 8.79908 14.8668 10.0843 14.985 11.935L15.0456 12.8801C15.052 12.9868 15.0062 13.0579 14.9668 13.0986C14.9086 13.1589 14.8228 13.195 14.7381 13.195C14.6799 13.195 14.5947 13.1784 14.5194 13.0998L13.8551 12.4076C12.3831 10.8729 10.0962 7.04187 8.57361 2.68725C8.13447 1.47429 7.57481 0.722424 6.14391 0.722424H2.01877C0.716623 0.722424 0 1.33894 0 2.45842C0 3.93175 1.81419 9.32843 5.28208 14.3913C8.25145 18.7259 13.1638 23.8926 19.7057 23.8926C21.2583 23.8926 22.3429 23.6144 22.842 23.0868C23.3429 22.558 23.2788 21.7855 23.2147 21.0377C23.2582 20.5301 23.257 20.2674 23.2453 19.7949C23.2394 19.1348 23.2329 18.3864 23.2606 17.9212L23.2958 17.3294C23.3011 17.2457 23.3723 17.1803 23.4587 17.1803C23.4734 17.1803 23.4887 17.182 23.5034 17.186L24.0901 17.3466C24.8402 17.5519 25.9278 18.3347 27.4127 19.7381C28.1411 20.4527 28.7225 21.0853 29.2363 21.6439C30.6561 23.1877 31.3039 23.8926 32.6737 23.8926H36.7988C37.8364 23.8926 38.3532 23.5049 38.6042 23.1791C38.9534 22.7261 39.0204 22.1308 38.8029 21.4093ZM35.8688 22.7209C35.4784 22.7197 34.9458 22.7186 34.211 22.7186C33.7742 22.7186 33.2668 22.7192 32.6737 22.7203C31.8448 22.7203 31.2845 22.1084 30.2628 20.9935C29.7537 20.4378 29.1194 19.7461 28.2634 18.9071C26.1988 16.9537 24.8437 16.121 23.732 16.121C23.1553 16.121 22.7568 16.2374 22.514 16.476C22.0002 16.9818 22.0172 18.2086 22.0348 19.5081C22.0366 19.6481 22.039 19.7897 22.0401 19.9371C22.0431 20.7997 22.0437 21.4248 22.0419 21.7987V21.8073L22.046 21.844C22.0783 22.1279 21.909 22.3992 21.6357 22.5035C21.2565 22.6481 20.6251 22.7186 19.7057 22.7186C13.7275 22.7186 9.14797 17.8903 6.35907 13.839C3.29035 9.38176 1.37563 4.35729 1.22514 2.58861L1.1981 2.26974C1.1834 2.09998 1.31391 1.94915 1.48909 1.93366L1.81713 1.90442C1.87945 1.89868 1.95234 1.89696 2.95585 1.89696H6.14391C7.0075 1.89696 7.17681 2.36494 7.43313 3.07207C9.52127 9.04798 12.9756 14.2904 14.8257 14.2904C15.8092 14.2904 16.1925 13.6916 16.1925 12.1552L16.1902 6.13688C16.0826 4.27413 15.3671 3.3961 14.9827 2.92411L14.6511 2.51749C14.5547 2.39935 14.5376 2.24737 14.6047 2.11145C14.6723 1.97553 14.8057 1.89467 14.9615 1.89467L21.5975 1.90212C21.802 1.90212 21.9743 2.05123 21.9984 2.24967L22.0243 2.46244C22.029 2.50545 22.029 2.51979 22.0266 3.24756C22.0207 4.96234 22.0049 9.51711 22.0448 10.8012V10.819C22.0448 10.9967 22.0772 12.5538 23.1935 12.5538C23.8502 12.5538 24.762 12.0296 25.6997 11.1103C28.7067 7.80291 30.7742 2.88511 30.8601 2.67865C31.0987 2.12235 31.4556 1.89524 32.0934 1.89524H36.5049C36.6542 1.89524 36.79 1.96291 36.877 2.08048C36.9646 2.19805 36.9875 2.34429 36.9405 2.48193L36.8735 2.67807L36.8688 2.697L36.8617 2.71879C36.325 4.96119 31.4579 11.7159 31.4103 11.7807L31.3868 11.814C30.8942 12.5957 30.6067 13.2271 31.3962 14.2457L31.4091 14.2606C31.4679 14.3294 31.6784 14.5576 32.0946 14.9774L32.1287 15.0113C35.7101 18.6043 37.4261 20.7389 37.6918 21.9329L37.7006 21.9702C37.7365 22.1331 37.7035 22.2982 37.6071 22.4347C37.5107 22.5718 37.3643 22.6618 37.1956 22.6882L37.1562 22.6945C37.001 22.7186 36.8617 22.722 36.4284 22.722L35.8688 22.7209Z" fill="white"/>
</svg>
