<svg width="32" height="25" viewBox="0 0 32 25" fill="none" xmlns="http://www.w3.org/2000/svg">
<path fill-rule="evenodd" clip-rule="evenodd" d="M27.4976 0.720703H4.70964C2.27759 0.720703 0.278809 2.67062 0.278809 5.04263V20.0856C0.278809 22.4577 2.27759 24.407 4.70964 24.407H27.4976C29.9296 24.407 31.9284 22.4577 31.9284 20.0856V5.04263C31.9284 2.63793 29.9296 0.720703 27.4976 0.720703ZM31.0289 20.0535C31.0289 21.9381 29.4299 23.4974 27.4976 23.4974H4.70964C2.74437 23.4974 1.17826 21.9702 1.17826 20.0535V5.04263C1.17826 3.15752 2.77729 1.59816 4.70964 1.59816H27.4976C29.4299 1.59816 31.0289 3.15752 31.0289 5.04263V20.0535ZM20.8681 11.3781L16.8705 9.59109L12.539 7.64175C12.1063 7.44676 11.6066 7.47945 11.2069 7.70656C10.7742 7.93424 10.5402 8.35634 10.5402 8.81113V16.2518C10.5402 16.7066 10.7736 17.1287 11.2069 17.3563C11.4403 17.4865 11.6736 17.5513 11.94 17.5513C12.1392 17.5513 12.3726 17.5186 12.5725 17.4217L16.9034 15.5045L20.9016 13.7175C21.4013 13.4898 21.7011 13.0677 21.7011 12.5475C21.6676 12.0606 21.3678 11.6052 20.8681 11.3781ZM20.5018 12.9054L16.5037 14.6924L12.1728 16.6091C12.0064 16.6744 11.8059 16.6744 11.6396 16.5769C11.5067 16.4794 11.4068 16.382 11.4068 16.2191L11.4062 8.84382C11.4062 8.68094 11.4732 8.58344 11.6396 8.48595C11.7395 8.42114 11.8394 8.42114 11.9064 8.42114C11.9729 8.42114 12.0728 8.45383 12.1392 8.48595L16.4701 10.4359L20.4683 12.2229C20.6012 12.2229 20.7681 12.3204 20.7681 12.5475C20.7681 12.7752 20.6012 12.8727 20.5018 12.9054Z" fill="white"/>
</svg>
