<svg width="43" height="43" viewBox="0 0 43 43" fill="none" xmlns="http://www.w3.org/2000/svg">
<path fill-rule="evenodd" clip-rule="evenodd" d="M42.7851 7.08011V0.214111H31.7991V2.96111H31.1121C29.2191 2.96111 27.6791 4.50011 27.6791 6.39411V20.8121H25.2991C25.9521 19.2581 26.3061 17.5711 26.3061 15.8381C26.3061 8.73811 20.5291 2.96011 13.4281 2.96011H13.0931C5.99211 2.96011 0.214111 8.73711 0.214111 15.8381C0.214111 20.0371 2.26811 23.9811 5.70711 26.3881C6.56611 26.9901 7.08011 27.9761 7.08011 29.0251V29.1491C5.89911 29.4561 5.02011 30.5221 5.02011 31.7981C5.02011 33.0741 5.89911 34.1411 7.08011 34.4471V34.5451C7.08011 37.9521 9.85311 40.7251 13.2601 40.7251C16.6671 40.7251 19.4401 37.9521 19.4401 34.5451V34.4481C20.6201 34.1411 21.4991 33.0751 21.4991 31.7991C21.4991 30.5231 20.6201 29.4561 19.4401 29.1501V29.0271C19.4401 27.9761 19.9531 26.9901 20.8131 26.3891C22.4031 25.2751 23.6931 23.8301 24.6241 22.1861H27.6781V36.6051C27.6781 38.4981 29.2191 40.0381 31.1121 40.0381H31.7981V42.7851H42.7841V35.9191H31.7981V38.6651H31.1121C29.9761 38.6651 29.0521 37.7411 29.0521 36.6051V22.1861H31.7981V24.9331H42.7841V18.0661H31.7981V20.8131H29.0521V6.39411C29.0521 5.25811 29.9761 4.33411 31.1121 4.33411H31.7981V7.08111L42.7851 7.08011ZM33.1721 1.58711H41.4111V5.70711H33.1721V1.58711ZM13.2601 39.3511C10.6101 39.3511 8.45411 37.1951 8.45411 34.5451H18.0671C18.0671 37.1951 15.9101 39.3511 13.2601 39.3511ZM20.1261 31.7991C20.1261 32.5561 19.5111 33.1721 18.7531 33.1721H7.76711C7.01011 33.1721 6.39411 32.5561 6.39411 31.7991C6.39411 31.0411 7.01011 30.4251 7.76711 30.4251H18.7531C19.5111 30.4251 20.1261 31.0411 20.1261 31.7991ZM11.8871 24.9321C12.9341 24.9321 13.9321 24.7171 14.8391 24.3311L14.0521 29.0521H12.4691L11.7821 24.9271C11.8171 24.9271 11.8511 24.9321 11.8871 24.9321ZM10.3641 24.7781L11.0761 29.0521H8.45411V29.0261C8.45411 27.5281 7.72111 26.1221 6.49411 25.2641C3.42211 23.1131 1.58811 19.5891 1.58811 15.8381C1.58811 9.49511 6.74911 4.33411 13.0921 4.33411H13.4271C19.7711 4.33411 24.9331 9.49511 24.9331 15.8381C24.9331 19.5891 23.0991 23.1131 20.0261 25.2641C18.7991 26.1221 18.0671 27.5281 18.0671 29.0261V29.0521H15.4441L16.3791 23.4361M33.1721 37.2921H41.4111V41.4111H33.1721V37.2921ZM33.1721 19.4391H41.4111V23.5591H33.1721V19.4391Z" fill="#F47722"/>
</svg>
