<svg width="41" height="40" viewBox="0 0 41 40" fill="none" xmlns="http://www.w3.org/2000/svg">
<path fill-rule="evenodd" clip-rule="evenodd" d="M37.9369 5.92491C36.6229 5.92491 35.5059 5.05491 35.1349 3.85991H23.4779V5.14491C23.4779 5.62491 23.0889 6.01391 22.6089 6.01391H18.3909C17.9109 6.01391 17.5219 5.62491 17.5219 5.14491V3.85991H5.86391C5.49291 5.05491 4.37791 5.92491 3.06191 5.92491C1.44491 5.92491 0.128906 4.60791 0.128906 2.99091C0.128906 1.37191 1.44491 0.0559082 3.06191 0.0559082C4.37791 0.0559082 5.49291 0.924909 5.86391 2.12091H17.5219V0.924909C17.5219 0.445909 17.9109 0.0559082 18.3909 0.0559082H22.6089C23.0889 0.0559082 23.4779 0.444909 23.4779 0.924909V2.12091H35.1349C35.5059 0.925909 36.6219 0.0559082 37.9369 0.0559082C39.5549 0.0559082 40.8699 1.37191 40.8699 2.99091C40.8699 4.60791 39.5539 5.92491 37.9369 5.92491ZM3.06191 1.79491C2.40291 1.79491 1.86691 2.33091 1.86691 2.99091C1.86691 3.64991 2.40191 4.18591 3.06191 4.18591C3.72091 4.18591 4.25591 3.64991 4.25591 2.99091C4.25591 2.33091 3.72091 1.79491 3.06191 1.79491ZM21.7399 1.79491H19.2599L19.2589 4.27591H21.7399V1.79491ZM37.9369 1.79491C37.2779 1.79491 36.7419 2.33091 36.7419 2.99091C36.7419 3.64991 37.2769 4.18591 37.9369 4.18591C38.5959 4.18591 39.1319 3.64991 39.1319 2.99091C39.1319 2.33091 38.5959 1.79491 37.9369 1.79491ZM9.40991 25.6259C9.41591 25.5979 9.42491 25.5719 9.43391 25.5449C9.44191 25.5189 9.44991 25.4919 9.46091 25.4659C9.47391 25.4359 9.49091 25.4069 9.50791 25.3789C9.51691 25.3619 9.52391 25.3449 9.53391 25.3279L19.7729 9.90891C19.7749 9.90691 19.7759 9.90491 19.7779 9.90291C19.7909 9.88191 19.8079 9.86491 19.8239 9.84591C19.8439 9.82091 19.8619 9.79591 19.8849 9.77291C19.8849 9.77191 19.8849 9.77191 19.8849 9.77191C19.9099 9.74791 19.9379 9.72791 19.9649 9.70591C19.9819 9.69191 19.9979 9.67691 20.0159 9.66591C20.0449 9.64591 20.0769 9.63091 20.1089 9.61491C20.1269 9.60591 20.1449 9.59291 20.1639 9.58491C20.1669 9.58391 20.1689 9.58391 20.1719 9.58191C20.1889 9.57491 20.2059 9.57191 20.2239 9.56691C20.2449 9.55891 20.2669 9.55191 20.2889 9.54691C20.3019 9.54391 20.3129 9.53791 20.3249 9.53491C20.3279 9.53491 20.3309 9.53491 20.3339 9.53391C20.3549 9.52991 20.3769 9.52991 20.3979 9.52691C20.4309 9.52391 20.4649 9.51891 20.4979 9.51891H20.5019C20.5209 9.51891 20.5389 9.52291 20.5579 9.52391C20.5949 9.52591 20.6319 9.52691 20.6679 9.53491C20.6689 9.53491 20.6699 9.53491 20.6709 9.53491C20.6949 9.53991 20.7149 9.54791 20.7379 9.55491C20.7679 9.56391 20.7989 9.56991 20.8279 9.58191C20.8299 9.58391 20.8309 9.58391 20.8329 9.58491C20.8569 9.59491 20.8789 9.60891 20.9019 9.62091C20.9299 9.63591 20.9569 9.64791 20.9829 9.66491C21.0019 9.67791 21.0189 9.69391 21.0369 9.70891C21.0629 9.72991 21.0899 9.74891 21.1139 9.77191C21.1139 9.77291 21.1139 9.77291 21.1149 9.77291C21.1319 9.78991 21.1439 9.81091 21.1599 9.82891C21.1809 9.85391 21.2039 9.87691 21.2209 9.90391C21.2219 9.90491 21.2229 9.90491 21.2229 9.90591C21.2229 9.90691 21.2239 9.90691 21.2249 9.90691L31.4649 25.3279C31.4759 25.3449 31.4829 25.3629 31.4929 25.3809C31.5089 25.4079 31.5249 25.4369 31.5379 25.4659C31.5489 25.4929 31.5569 25.5199 31.5659 25.5479C31.5739 25.5739 31.5829 25.5989 31.5889 25.6249C31.5949 25.6539 31.5979 25.6839 31.6019 25.7139C31.6049 25.7389 31.6079 25.7649 31.6079 25.7909C31.6089 25.8199 31.6059 25.8489 31.6039 25.8769C31.6019 25.9049 31.5999 25.9319 31.5949 25.9599C31.5899 25.9879 31.5819 26.0149 31.5739 26.0429C31.5669 26.0689 31.5609 26.0959 31.5509 26.1219C31.5399 26.1519 31.5239 26.1809 31.5089 26.2099C31.4999 26.2269 31.4939 26.2449 31.4839 26.2619L27.7289 32.4169L27.7299 34.0039C28.6559 34.0369 29.4009 34.7959 29.4009 35.7309V38.2109C29.4009 39.1669 28.6239 39.9439 27.6699 39.9439H13.3309C12.3769 39.9439 11.5999 39.1669 11.5999 38.2109V35.7309C11.5999 34.7959 12.3439 34.0369 13.2699 34.0039V32.4159L9.51691 26.2619C9.50691 26.2459 9.50191 26.2289 9.49291 26.2129C9.47691 26.1829 9.46091 26.1519 9.44791 26.1209C9.43891 26.0949 9.43191 26.0699 9.42491 26.0439C9.41691 26.0159 9.40891 25.9879 9.40391 25.9599C9.39891 25.9329 9.39691 25.9039 9.39491 25.8759C9.39291 25.8489 9.39091 25.8209 9.39091 25.7929C9.39191 25.7649 9.39491 25.7379 9.39791 25.7109C9.40091 25.6829 9.40391 25.6539 9.40991 25.6259ZM20.4989 20.9629C19.6109 20.9629 18.8889 21.6849 18.8889 22.5739C18.8889 23.4619 19.6109 24.1849 20.4989 24.1849C21.3869 24.1849 22.1089 23.4619 22.1089 22.5739C22.1089 21.6849 21.3869 20.9629 20.4989 20.9629ZM13.3369 38.2109L27.6619 38.2049V35.7299L26.9239 35.7309C26.9019 35.7329 26.8819 35.7369 26.8599 35.7369H14.1389C14.1379 35.7369 14.1359 35.7369 14.1349 35.7369H13.3299L13.3369 38.2109ZM25.9899 33.9989V33.0419H15.0069V33.9989H25.9899ZM14.6259 31.3029H26.3719L29.7109 25.8299L21.3679 13.2669V19.3419C22.7939 19.7269 23.8469 21.0279 23.8469 22.5739C23.8469 24.4209 22.3449 25.9239 20.4989 25.9239C18.6519 25.9239 17.1499 24.4209 17.1499 22.5739C17.1499 21.0279 18.2039 19.7259 19.6299 19.3419V13.2669L11.2879 25.8289L14.6259 31.3029Z" fill="#F47722"/>
</svg>
