<svg width="40" height="40" viewBox="0 0 40 40" fill="none" xmlns="http://www.w3.org/2000/svg">
<path fill-rule="evenodd" clip-rule="evenodd" d="M29.0008 20.5461C30.1088 19.4411 30.7978 17.9871 30.9528 16.4301C31.1078 14.8741 30.7178 13.3121 29.8508 12.0121C28.9828 10.7101 27.6908 9.75012 26.1938 9.29612C24.6988 8.84112 23.0908 8.91912 21.6458 9.51712C20.2008 10.1151 19.0078 11.1951 18.2708 12.5741C17.5328 13.9531 17.2968 15.5451 17.6018 17.0791C17.9068 18.6131 18.7338 19.9941 19.9428 20.9861C21.1518 21.9781 22.6668 22.5201 24.2308 22.5201C25.1168 22.5231 25.9948 22.3491 26.8138 22.0101C27.6328 21.6721 28.3758 21.1741 29.0008 20.5461ZM20.4958 12.0371C21.2348 11.3001 22.1738 10.7991 23.1968 10.5961C24.2188 10.3931 25.2788 10.4981 26.2418 10.8971C27.2048 11.2961 28.0278 11.9721 28.6068 12.8401C29.1868 13.7061 29.4958 14.7261 29.4958 15.7691C29.4958 16.8121 29.1868 17.8311 28.6068 18.6981C28.0278 19.5651 27.2048 20.2411 26.2418 20.6401C25.2788 21.0401 24.2188 21.1451 23.1968 20.9421C22.1738 20.7391 21.2348 20.2371 20.4958 19.5011C20.0048 19.0121 19.6128 18.4311 19.3468 17.7901C19.0798 17.1501 18.9428 16.4631 18.9428 15.7691C18.9428 15.0751 19.0798 14.3881 19.3468 13.7471C19.6128 13.1071 20.0048 12.5261 20.4958 12.0371ZM22.5808 14.1221C22.1438 14.5591 21.8988 15.1521 21.8988 15.7701C21.8988 16.3881 22.1438 16.9821 22.5808 17.4191C22.7188 17.5571 22.7968 17.7451 22.7968 17.9401C22.7968 18.1351 22.7188 18.3231 22.5808 18.4611C22.4428 18.5991 22.2548 18.6771 22.0598 18.6771C21.8648 18.6771 21.6768 18.5991 21.5378 18.4611C20.8258 17.7471 20.4258 16.7791 20.4258 15.7701C20.4258 14.7611 20.8258 13.7941 21.5378 13.0791C21.6768 12.9411 21.8648 12.8641 22.0598 12.8641C22.2548 12.8641 22.4428 12.9411 22.5808 13.0791C22.7188 13.2171 22.7968 13.4051 22.7968 13.6001C22.7968 13.7961 22.7188 13.9841 22.5808 14.1221ZM39.3668 1.29612C39.3518 1.12412 39.2758 0.96312 39.1548 0.84112C39.0328 0.71912 38.8728 0.64412 38.7008 0.62812C32.4798 0.0641202 26.2258 1.25312 20.6438 4.05912C16.5588 1.70512 10.8008 2.84812 6.7678 6.88112L2.3718 11.2841C2.0938 11.5371 1.9118 11.8771 1.8538 12.2491C1.7958 12.6191 1.8658 12.1001 2.0528 13.3251C2.1778 13.5281 2.3538 13.6961 2.5638 13.8111C2.7728 13.9261 3.0088 13.9841 3.2478 13.9811C3.4388 13.9791 3.6288 13.9461 3.8098 13.8831C6.3038 13.0261 8.3898 12.5021 9.9868 12.3111L2.8538 19.4451C2.2178 20.0831 1.8608 20.9471 1.8608 21.8481C1.8608 22.7491 2.2178 23.6121 2.8538 24.2501L4.2498 25.6461C3.3088 26.6821 2.5258 27.8511 1.9268 29.1141C1.8858 29.2021 1.8628 29.2971 1.8578 29.3931C1.8538 29.4901 1.8688 29.5861 1.9018 29.6781C1.9348 29.7691 1.9848 29.8521 2.0498 29.9241C2.1148 29.9951 2.1938 30.0531 2.2818 30.0941C2.3688 30.1351 2.4638 30.1591 2.5598 30.1631C2.6568 30.1671 2.7538 30.1531 2.8438 30.1191C2.9348 30.0871 3.0188 30.0361 3.0898 29.9711C3.1618 29.9061 3.2198 29.8281 3.2608 29.7401C3.7788 28.6271 4.4558 27.5931 5.2688 26.6731L7.0268 28.4321C5.8748 29.7451 5.5198 30.8451 5.1308 32.3901L4.5888 34.5111C4.5608 34.6201 4.5588 34.7341 4.5818 34.8441C4.6048 34.9541 4.6528 35.0571 4.7218 35.1451C4.7908 35.2341 4.8778 35.3061 4.9788 35.3551C5.0788 35.4051 5.1898 35.4301 5.3018 35.4311C5.3638 35.4311 5.4258 35.4231 5.4858 35.4061L7.6248 34.8661C9.1688 34.4691 10.2668 34.1131 11.5798 32.9691L13.3368 34.7281C11.1328 36.6911 8.3138 37.8271 5.3648 37.9421L1.9048 38.0901L2.0508 34.6301C2.0888 33.7831 2.2088 32.9421 2.4098 32.1181C2.4338 32.0241 2.4388 31.9261 2.4248 31.8301C2.4108 31.7341 2.3778 31.6411 2.3288 31.5571C2.2788 31.4741 2.2128 31.4011 2.1348 31.3431C2.0558 31.2861 1.9668 31.2441 1.8728 31.2211C1.7778 31.1971 1.6798 31.1931 1.5838 31.2081C1.4878 31.2231 1.3958 31.2571 1.3128 31.3081C1.2298 31.3581 1.1578 31.4251 1.1008 31.5041C1.0438 31.5821 1.0028 31.6721 0.980799 31.7671C0.753799 32.6851 0.619799 33.6221 0.578799 34.5671L0.400799 38.8361C0.395799 38.9361 0.411798 39.0351 0.446798 39.1281C0.481798 39.2211 0.534799 39.3061 0.603799 39.3781C0.671799 39.4501 0.754799 39.5061 0.846799 39.5451C0.938799 39.5831 1.0368 39.6031 1.1368 39.6021H1.1668L5.4358 39.4221C8.7458 39.2851 11.9048 37.9931 14.3648 35.7721L15.7528 37.1611C16.5058 37.9151 17.2588 38.1861 17.9728 38.1861C19.5818 38.1861 20.9858 36.7771 21.6508 36.1211C21.7198 36.0531 21.7738 35.9721 21.8108 35.8821C21.8478 35.7931 21.8668 35.6981 21.8668 35.6011C21.8668 35.5051 21.8488 35.4091 21.8118 35.3201C21.7748 35.2301 21.7208 35.1491 21.6528 35.0801C21.5838 35.0121 21.5038 34.9581 21.4138 34.9211C21.3248 34.8831 21.2288 34.8651 21.1318 34.8651C21.0358 34.8651 20.9398 34.8831 20.8508 34.9201C20.7618 34.9571 20.6798 35.0111 20.6118 35.0801C18.8408 36.8371 17.8068 37.1291 16.7948 36.1191L14.9068 34.2151L12.1098 31.4251L8.5788 27.8941L5.7868 25.0961L3.8928 23.2031C3.5338 22.8421 3.3318 22.3531 3.3318 21.8431C3.3318 21.3331 3.5338 20.8441 3.8928 20.4831L12.7798 11.5951C15.1798 9.17012 17.9388 7.12812 20.9598 5.54312C23.3708 4.29412 25.9318 3.35912 28.5808 2.76312L37.2318 11.4151C36.6348 14.0631 35.6998 16.6241 34.4488 19.0341C32.3248 23.1251 29.1908 26.4781 25.9768 29.7281C24.8928 30.8231 23.7898 31.9021 22.6878 32.9921C22.5558 33.1311 22.4828 33.3151 22.4838 33.5061C22.4848 33.6981 22.5608 33.8811 22.6948 34.0181C22.8288 34.1551 23.0098 34.2341 23.2008 34.2401C23.3928 34.2451 23.5778 34.1761 23.7198 34.0471C24.9758 32.8261 26.3238 31.4961 27.6788 30.1091C27.4808 31.6971 26.9588 33.7511 26.1178 36.1971C25.9908 36.5091 25.9778 36.8551 26.0798 37.1761C26.1808 37.4981 26.3918 37.7731 26.6758 37.9551C26.9118 38.1021 27.1848 38.1801 27.4638 38.1781C27.6978 38.1751 27.9298 38.1261 28.1458 38.0321C28.3608 37.9391 28.5558 37.8051 28.7188 37.6361L33.1158 33.2381C37.1508 29.2031 38.2938 23.4441 35.9408 19.3581C38.7478 13.7771 39.9348 7.52212 39.3678 1.30112L39.3668 1.29612ZM7.2508 33.4411L6.3318 33.6771L6.5648 32.7581C6.9068 31.4271 7.1678 30.5461 8.0718 29.4811L10.5218 31.9301C9.4608 32.8361 8.5818 33.0981 7.2508 33.4361V33.4411ZM31.0148 2.31712C33.3098 1.97912 35.6358 1.89012 37.9498 2.05412C38.1248 4.51912 38.0138 6.99612 37.6188 9.43512C37.6038 9.51812 37.5908 9.60012 37.5758 9.68612L30.3198 2.42512C30.5508 2.38212 30.7818 2.34512 31.0158 2.31212L31.0148 2.31712ZM11.5418 10.7561C9.6638 10.6781 6.9068 11.2581 3.3288 12.4911H3.3038C3.3238 12.4241 3.3608 12.3651 3.4118 12.3181L7.8108 7.91812C10.1658 5.56212 13.1618 4.29912 15.9368 4.29912C17.0068 4.29212 18.0688 4.49412 19.0598 4.89712C16.4758 6.37312 14.1008 8.18812 11.9968 10.2941L11.7458 10.5441L11.5678 10.7251L11.5418 10.7561ZM32.0748 32.1931L27.6748 36.5931C27.6278 36.6441 27.5678 36.6811 27.5018 36.7011C27.5008 36.6911 27.5008 36.6811 27.5018 36.6711C28.7248 33.1021 29.3068 30.3501 29.2348 28.4741C29.2998 28.4011 29.3678 28.3331 29.4328 28.2631L29.6838 28.0121C31.7898 25.9081 33.6038 23.5311 35.0778 20.9451C36.5168 24.3801 35.3588 28.9091 32.0748 32.1931Z" fill="#F47722"/>
</svg>
