<svg width="43" height="43" viewBox="0 0 43 43" fill="none" xmlns="http://www.w3.org/2000/svg">
<path fill-rule="evenodd" clip-rule="evenodd" d="M42.1368 26.041L35.3408 11.211L36.9888 10.391L36.3718 9.15603L34.7658 9.95603L34.5478 9.48203C34.4348 9.23703 34.1908 9.08003 33.9208 9.08003C33.6508 9.08003 33.4058 9.23703 33.2938 9.48203L33.0998 9.90503C31.9298 9.36303 30.6568 9.08103 29.3668 9.08003H23.5708V7.70003H24.9508V6.32003H23.7648L24.2608 4.33502C24.4738 3.48502 24.2828 2.58503 23.7438 1.89403C23.2038 1.20403 22.3778 0.801025 21.5008 0.801025C20.6258 0.801025 19.7978 1.20403 19.2588 1.89403C18.7198 2.58503 18.5288 3.48502 18.7418 4.33502L19.2368 6.32003H18.0518V7.70003H19.4308V9.08003H13.6388C12.3488 9.08103 11.0728 9.36403 9.90277 9.90803L9.70877 9.48403C9.59577 9.23903 9.35177 9.08103 9.08177 9.08103C8.81177 9.08103 8.56677 9.23903 8.45477 9.48403L8.23777 9.95803L6.62977 9.15403L6.01377 10.391L7.66177 11.214L0.864768 26.042C0.822768 26.132 0.801768 26.23 0.802768 26.33C0.803768 27.61 1.31277 28.838 2.21877 29.743C3.12377 30.648 4.35177 31.158 5.63177 31.159H12.5318C13.8118 31.158 15.0398 30.648 15.9448 29.743C16.8508 28.838 17.3598 27.61 17.3608 26.33C17.3598 26.23 17.3358 26.133 17.2928 26.044L10.4768 11.158C11.4678 10.698 12.5468 10.46 13.6388 10.46H19.4308V35.704L17.0758 38.059H14.6018C13.6868 38.061 12.8098 38.424 12.1638 39.071C11.5168 39.717 11.1528 40.594 11.1518 41.509C11.1518 41.692 11.2238 41.868 11.3538 41.997C11.4828 42.126 11.6588 42.199 11.8418 42.199H31.1608C31.3438 42.199 31.5188 42.126 31.6488 41.997C31.7778 41.868 31.8508 41.692 31.8508 41.509C31.8498 40.594 31.4858 39.717 30.8388 39.071C30.1918 38.424 29.3158 38.061 28.4008 38.059H25.9268L23.5708 35.704V10.46H29.3668C30.4588 10.46 31.5378 10.698 32.5288 11.158L25.7038 26.041C25.6618 26.132 25.6408 26.23 25.6408 26.329C25.6428 27.61 26.1518 28.837 27.0568 29.743C27.9628 30.648 29.1908 31.157 30.4708 31.159H37.3708C38.6508 31.157 39.8788 30.648 40.7838 29.743C41.6898 28.837 42.1988 27.61 42.1998 26.329C42.1988 26.23 42.1748 26.133 42.1318 26.044L42.1368 26.041ZM12.5318 29.779H5.63277C4.83677 29.778 4.06677 29.503 3.45077 29C2.83477 28.497 2.41177 27.797 2.25177 27.019H15.9128C15.7528 27.797 15.3288 28.497 14.7128 29C14.0968 29.503 13.3268 29.778 12.5318 29.779ZM15.5968 25.639H2.56777L8.90577 11.811C9.02177 11.842 9.14377 11.842 9.25877 11.811L15.5968 25.639ZM20.3468 2.74303C20.6338 2.40203 21.0558 2.20603 21.5018 2.20603C21.9468 2.20603 22.3688 2.40203 22.6558 2.74303C22.9348 3.09803 23.0338 3.56203 22.9228 3.10003L22.3428 6.31903H20.6598L20.0798 3.10003C19.9698 3.56203 20.0688 3.09803 20.3468 2.74303ZM20.8118 9.07903V7.69903H22.1908V9.07903H20.8118ZM22.1908 10.46V35.299H20.8118V10.46H22.1908ZM28.4008 39.438C28.8288 39.439 29.2458 39.572 29.5958 39.819C29.9448 40.066 30.2098 40.415 30.3528 40.819H12.6498C12.7928 40.415 13.0578 40.066 13.4068 39.819C13.7568 39.572 14.1738 39.439 14.6018 39.438H28.4008ZM23.9758 38.058H19.0268L20.4068 36.678H22.5958L23.9758 38.058ZM33.7428 11.813C33.8568 11.853 33.9818 11.848 34.0918 11.799L40.4348 25.639H27.4068L33.7428 11.813ZM37.3708 29.779H30.4708C29.6758 29.778 28.9058 29.503 28.2898 29C27.6738 28.497 27.2498 27.797 27.0898 27.019H40.7508C40.5908 27.797 40.1678 28.497 39.5518 29C38.9358 29.503 38.1658 29.778 37.3708 29.779Z" fill="#F47722"/>
</svg>
