<svg width="39" height="47" viewBox="0 0 39 47" fill="none" xmlns="http://www.w3.org/2000/svg">
<path fill-rule="evenodd" clip-rule="evenodd" d="M38.5151 16.8189L35.4461 13.7469C35.1391 13.4399 34.6791 13.4399 34.3721 13.7469L31.0731 17.0489V8.90891C31.0731 6.75891 29.3851 5.06991 27.2361 5.06991H22.6331V4.30191C22.6331 3.84091 22.3261 3.53291 21.8651 3.53291H18.7961C18.7961 1.84391 17.4151 0.461914 15.7271 0.461914C14.0391 0.461914 12.6581 1.84391 12.6581 3.53291H9.58908C9.12808 3.53291 8.82208 3.84091 8.82208 4.30191V5.06991H4.21808C2.07008 5.06991 0.38208 6.75891 0.38208 8.90891V42.6979C0.38208 44.8479 2.07008 46.5379 4.21808 46.5379H27.2361C29.3851 46.5379 31.0731 44.8479 31.0731 42.6979V25.3429L38.5151 17.8939C38.8221 17.5869 38.8221 17.1259 38.5151 16.8189ZM15.7271 1.99691C16.5711 1.99691 17.2611 2.68791 17.2611 3.53291H14.1921C14.1921 2.68791 14.8831 1.99691 15.7271 1.99691ZM10.3561 5.06891H21.0981V7.37291H10.3561V5.06891ZM29.5381 42.6969C29.5381 44.0029 28.5401 45.0019 27.2361 45.0019H4.21808C2.91308 45.0019 1.91608 44.0029 1.91608 42.6969V8.90891C1.91608 7.60291 2.91308 6.60491 4.21808 6.60491H8.82108V8.14091C8.82108 8.60091 9.12808 8.90891 9.58808 8.90891H21.8651C22.3251 8.90891 22.6321 8.60091 22.6321 8.14091V6.60491H27.2361C28.5401 6.60491 29.5381 7.60291 29.5381 8.90891V18.5849L14.4221 33.7129C14.3451 33.7899 14.3451 33.8669 14.2691 33.9429V34.0199L12.7341 38.6279C12.5811 39.0119 12.7341 39.4729 13.1181 39.6259C13.1941 39.6259 13.2711 39.7029 13.3481 39.7029H13.5781L18.1821 38.1669H18.2581C18.3351 38.1669 18.4121 38.0909 18.4881 38.0129L29.5371 26.8779L29.5381 42.6969ZM16.5701 37.0149L14.5751 37.7059L15.2661 35.7089L16.5701 37.0149ZM18.0281 36.2469L16.0331 34.2499L32.6061 17.6629L34.6011 19.6589L18.0281 36.2469ZM35.6751 18.5849L33.6811 16.5879L34.9081 15.3589L36.9031 17.3559L35.6751 18.5849ZM4.98408 12.7479C4.98408 12.2869 5.29208 11.9809 5.75208 11.9809H25.7011C26.1611 11.9809 26.4681 12.2869 26.4681 12.7479C26.4681 13.2089 26.1611 13.5159 25.7011 13.5159H5.75208C5.29208 13.5159 4.98408 13.2089 4.98408 12.7479ZM4.98408 17.3559C4.98408 16.8949 5.29208 16.5879 5.75208 16.5879H25.7011C26.1611 16.5879 26.4681 16.8949 26.4681 17.3559C26.4681 17.8169 26.1611 18.1239 25.7011 18.1239H5.75208C5.29208 18.1239 4.98408 17.8169 4.98408 17.3559ZM4.98408 21.9629C4.98408 21.5019 5.29208 21.1959 5.75208 21.1959H21.0971C21.5581 21.1959 21.8641 21.5019 21.8641 21.9629C21.8641 22.4239 21.5581 22.7309 21.0971 22.7309H5.75208C5.29208 22.7309 4.98408 22.4239 4.98408 21.9629ZM4.98408 26.5709C4.98408 26.1099 5.29208 25.8029 5.75208 25.8029H16.4941C16.9541 25.8029 17.2611 26.1099 17.2611 26.5709C17.2611 27.0319 16.9541 27.3389 16.4941 27.3389H5.75208C5.29208 27.3389 4.98408 27.0319 4.98408 26.5709ZM12.6571 31.1779C12.6571 31.6389 12.3501 31.9459 11.8901 31.9459H5.75208C5.29208 31.9459 4.98408 31.6389 4.98408 31.1779C4.98408 30.7179 5.29208 30.4109 5.75208 30.4109H11.8901C12.3501 30.4109 12.6571 30.7179 12.6571 31.1779Z" fill="#F47722"/>
</svg>
