<svg width="32" height="42" viewBox="0 0 32 42" fill="none" xmlns="http://www.w3.org/2000/svg">
<path fill-rule="evenodd" clip-rule="evenodd" d="M15.1 41.6061C11.922 41.6061 8.08101 41.2251 5.18301 40.5351C1.91601 39.7571 0.26001 38.6861 0.26001 37.3531C0.26001 36.2041 1.43101 35.2831 3.83801 34.5351C5.42301 34.0441 7.41001 33.6681 9.74301 33.4181L10.474 33.3411L9.98801 32.7891C9.53101 32.2721 9.08101 31.7401 8.65101 31.2091C6.63301 28.7181 5.02301 26.2071 3.86601 23.7451C2.40701 20.6411 1.66701 17.6071 1.66701 14.7271C1.66701 6.83007 8.09101 0.400066 15.988 0.393066H16.011C23.908 0.400066 30.332 6.83007 30.332 14.7271C30.332 17.6071 29.593 20.6411 28.134 23.7451C26.975 26.2091 25.365 28.7201 23.348 31.2091C22.917 31.7411 22.468 32.2731 22.011 32.7891L21.525 33.3411L22.256 33.4181C24.592 33.6681 26.579 34.0441 28.161 34.5351C30.569 35.2821 31.739 36.2031 31.739 37.3531C31.739 38.6861 30.083 39.7571 26.817 40.5351C23.919 41.2251 20.077 41.6061 15.1 41.6061ZM11.46 34.5861C8.79001 34.7881 6.42301 35.1671 4.61601 35.6801C2.52801 36.2741 1.87201 36.8481 1.66701 37.1361L1.51701 37.3471L1.65801 37.5641C1.97301 38.0461 3.26401 38.7701 5.94201 39.3571C8.68501 39.9571 12.258 40.2881 16.001 40.2881C19.735 40.2881 23.3 39.9591 26.041 39.3611L26.061 39.3571C28.741 38.7701 30.031 38.0451 30.344 37.5631L30.484 37.3471L30.335 37.1371C30.131 36.8481 29.477 36.2751 27.386 35.6801C25.58 35.1671 23.213 34.7891 20.541 34.5861L20.365 34.5721L20.241 34.6991C18.161 36.8301 16.582 38.0921 16.409 38.2281C16.291 38.3211 16.15 38.3701 16.001 38.3701C15.851 38.3701 15.71 38.3211 15.593 38.2291C15.524 38.1741 13.888 36.8781 11.761 34.6991L11.637 34.5721L11.46 34.5861ZM2.98501 14.7271C2.98501 24.8621 12.758 34.0661 15.753 36.6451L16.001 36.8581L16.249 36.6451C17.487 35.5811 19.927 33.3471 22.353 30.3451C25.392 26.5841 29.015 20.8221 29.015 14.7261C29.015 7.55007 23.177 1.71207 16 1.71207C12.529 1.71207 9.26301 3.06707 6.80101 5.52807C4.34001 7.98907 2.98501 11.2561 2.98501 14.7271ZM16.001 24.5331C10.596 24.5331 6.19901 20.1361 6.19901 14.7311C6.19901 9.32707 10.596 4.92907 16.001 4.92907C21.405 4.92907 25.803 9.32707 25.803 14.7311C25.803 20.1351 21.405 24.5311 16.001 24.5331ZM16.001 6.24807C11.323 6.24807 7.51701 10.0531 7.51701 14.7311C7.51701 19.4091 11.323 23.2151 16.001 23.2151C20.679 23.2151 24.485 19.4091 24.485 14.7311C24.485 10.0531 20.679 6.24807 16.001 6.24807Z" fill="#F47722" stroke="#F47722" stroke-width="0.2"/>
</svg>
