<svg width="48" height="39" viewBox="0 0 48 39" fill="none" xmlns="http://www.w3.org/2000/svg">
<path fill-rule="evenodd" clip-rule="evenodd" d="M36.643 11.6679C36.572 11.4029 36.344 11.2089 36.072 11.1789L31.98 10.7319L29.959 3.19391C29.525 1.57391 27.851 0.608906 26.23 1.04291C24.688 1.45491 23.739 2.98791 24.024 4.52991L24.014 4.53191C24.403 5.98391 23.12 8.07691 20.495 10.2729C18.23 12.1689 15.256 13.8649 13.262 14.3989L3.22995 17.0849C1.22795 17.6209 0.0359535 19.6849 0.571954 21.6849L1.61495 25.5719C1.87395 26.5399 2.49695 27.3489 3.36795 27.8509C4.09495 28.2709 4.92095 28.4319 5.73695 28.3239L11.904 37.6049C12.029 37.7939 12.24 37.9029 12.459 37.9029C12.516 37.9029 12.574 37.8949 12.632 37.8799L17.334 36.6209C17.528 36.5699 17.689 36.4329 17.77 36.2489C17.851 36.0649 17.846 35.8549 17.755 35.6759L13.026 26.4069L16.25 25.5439C18.244 25.0099 21.669 24.9929 24.579 25.5029C27.951 26.0939 30.109 27.2659 30.499 28.7179C30.863 30.0759 32.097 30.9729 33.441 30.9729C33.701 30.9729 33.965 30.9399 34.228 30.8689C35.012 30.6589 35.667 30.1549 36.075 29.4499C36.483 28.7449 36.592 27.9259 36.381 27.1429L34.297 19.3699L37.616 16.9379C37.838 16.7759 37.937 16.4939 37.865 16.2289L36.643 11.6679ZM4.03395 26.6969C3.47095 26.3739 3.06795 25.8509 2.90195 25.2279L1.85895 21.3399C1.51295 20.0489 2.28195 18.7159 3.57395 18.3709L12.962 15.8579L15.26 24.4289L5.87295 26.9419C5.24995 27.1099 4.59595 27.0229 4.03395 26.6979V26.6969ZM16.194 35.5479L12.749 36.4699L7.11395 27.9879L11.709 26.7579L16.194 35.5479ZM16.554 24.1089L14.243 15.4909C16.362 14.7649 19.179 13.1129 21.351 11.2949C22.963 9.94691 24.115 8.61191 24.771 7.35991L29.741 25.8919C26.393 23.7799 19.976 23.4409 16.554 24.1089ZM34.922 28.7839C34.692 29.1809 34.323 29.4639 33.884 29.5819C32.972 29.8259 32.031 29.2829 31.786 28.3719L25.364 4.42391C25.12 3.51191 25.663 2.5719 26.575 2.3279C27.487 2.0829 28.428 2.62691 28.673 3.53791L35.095 27.4859C35.212 27.9259 35.151 28.3859 34.922 28.7839ZM33.927 17.9879L32.351 12.1119L35.474 12.4539L36.46 16.1319L33.927 17.9879ZM46.966 11.9959L42.101 13.2989C42.043 13.3139 41.985 13.3219 41.928 13.3219C41.633 13.3219 41.365 13.1259 41.284 12.8279C41.189 12.4729 41.4 12.1079 41.756 12.0129L46.621 10.7109C46.976 10.6149 47.342 10.8259 47.437 11.1819C47.533 11.5369 47.322 11.9019 46.966 11.9959ZM40.37 2.77491L37.852 7.13291C37.728 7.34691 37.505 7.46591 37.274 7.46591C37.161 7.46591 37.047 7.43691 36.942 7.37691C36.623 7.19291 36.514 6.7849 36.698 6.4669L39.216 2.1089C39.401 1.7909 39.808 1.68191 40.126 1.86491C40.445 2.04991 40.555 2.45691 40.37 2.77491ZM46.014 22.9339C45.89 23.1469 45.667 23.2669 45.436 23.2669C45.323 23.2669 45.209 23.2379 45.103 23.1779L40.741 20.6619C40.423 20.4769 40.314 20.0699 40.498 19.7519C40.682 19.4329 41.089 19.3239 41.408 19.5079L45.769 22.0239C46.089 22.2079 46.198 22.6149 46.014 22.9339Z" fill="#F47722" stroke="#F47722" stroke-width="0.2"/>
</svg>
