<svg width="37" height="37" viewBox="0 0 37 37" fill="none" xmlns="http://www.w3.org/2000/svg">
<path fill-rule="evenodd" clip-rule="evenodd" d="M35.57 34.5281C36.652 34.5281 36.652 36.0901 35.57 36.0901H0.842041V1.50411C0.842041 0.423109 2.40504 0.423109 2.40504 1.50411V20.4781L10.095 14.9541L18.627 20.2381L32.686 6.90811C32.927 6.66811 33.528 6.66811 33.768 7.02811C34.129 7.26911 34.008 7.86911 33.768 8.10911L18.868 22.2801L10.216 16.8761L2.40504 22.5201V34.5291H6.61104V23.2401H13.22V34.5291H16.945V27.3241H23.554V34.5291H27.039V20.1181H33.648V34.5291L35.57 34.5281ZM8.29304 34.5281H11.658V24.8011H8.29304V34.5281ZM18.507 34.5281H21.871V28.8841H18.507V34.5281ZM28.72 34.5281H32.085V21.7991H28.72V34.5281Z" fill="#F47722"/>
</svg>
