<svg width="43" height="37" viewBox="0 0 43 37" fill="none" xmlns="http://www.w3.org/2000/svg">
<path fill-rule="evenodd" clip-rule="evenodd" d="M3.3921 0.77002C1.7171 0.77002 0.350098 2.14902 0.350098 3.82702V26.593C0.350098 28.271 1.7171 29.648 3.3921 29.648H15.5451L13.5581 34.769H9.1111C8.7081 34.769 8.3811 35.096 8.3811 35.499C8.3811 35.693 8.4591 35.878 8.5951 36.015C8.7321 36.152 8.9171 36.228 9.1111 36.228H33.8881C34.0811 36.228 34.2671 36.152 34.4041 36.015C34.5401 35.878 34.6171 35.693 34.6171 35.499C34.6171 35.096 34.2911 34.769 33.8881 34.769H29.4411L27.4541 29.648H39.6061C41.2821 29.648 42.6491 28.271 42.6491 26.593V3.82702C42.6491 2.14902 41.2821 0.77002 39.6061 0.77002H3.3921ZM3.3921 2.23002H39.6071C40.4951 2.23002 41.1901 2.92702 41.1901 3.82702V21.27H35.2021V17.811C35.2021 17.409 34.8761 17.082 34.4731 17.081H32.1931C31.9481 16.183 31.5921 15.318 31.1331 14.508L32.7491 12.883C33.0321 12.598 33.0321 12.138 32.7491 11.854L29.6331 8.72002C29.4961 8.58302 29.3091 8.50402 29.1161 8.50402C28.9211 8.50402 28.7361 8.58202 28.5991 8.71902L26.9861 10.341C26.1821 9.88102 25.3251 9.52402 24.4331 9.27802V6.98002C24.4331 6.78702 24.3561 6.60102 24.2201 6.46402C24.0831 6.32702 23.8971 6.25102 23.7041 6.25102H19.2951C18.8921 6.25102 18.5661 6.57702 18.5661 6.98002V9.28002C17.6751 9.52502 16.8181 9.88402 16.0151 10.344L14.4001 8.72002C14.2631 8.58302 14.0771 8.50402 13.8831 8.50402C13.6891 8.50402 13.5031 8.58202 13.3671 8.71902L10.2491 11.854C9.9671 12.138 9.9671 12.598 10.2491 12.883L11.8691 14.511C11.4101 15.32 11.0541 16.183 10.8101 17.081H8.5251C8.1231 17.082 7.7961 17.408 7.7961 17.81V21.27H1.8081V3.82702C1.8081 2.92702 2.5041 2.23002 3.3921 2.23002ZM20.0251 7.71002H22.9751V9.84702C22.9751 10.19 23.2141 10.486 23.5481 10.56C24.6691 10.805 25.7391 11.251 26.7041 11.874C26.9941 12.061 27.3741 12.02 27.6171 11.775L29.1161 10.268L31.2041 12.367L29.7001 13.881C29.4591 14.123 29.4191 14.5 29.6031 14.788C30.2241 15.76 30.6671 16.836 30.9111 17.964C30.9841 18.3 31.2811 18.539 31.6241 18.539H33.7451V21.269H25.8661C25.9781 20.867 26.0371 20.449 26.0371 20.027C26.0371 17.52 23.9991 15.469 21.5001 15.469C19.0011 15.469 16.9631 17.52 16.9631 20.027C16.9631 20.449 17.0211 20.866 17.1341 21.269H9.2541V18.539H11.3791C11.7231 18.539 12.0181 18.3 12.0911 17.965C12.3371 16.837 12.7791 15.762 13.3991 14.791C13.5841 14.503 13.5431 14.126 13.3031 13.884L11.7951 12.367L13.8831 10.268L15.3861 11.778C15.6281 12.023 16.0091 12.064 16.2981 11.878C17.2631 11.253 18.3311 10.808 19.4511 10.562C19.7861 10.488 20.0241 10.192 20.0241 9.84902L20.0251 7.71002ZM21.5001 16.927C23.2061 16.927 24.5781 18.304 24.5781 20.027C24.5781 20.456 24.4901 20.878 24.3191 21.269H18.6791C18.5111 20.878 18.4201 20.456 18.4201 20.027C18.4201 18.304 19.7921 16.927 21.4981 16.927H21.5001ZM1.8091 22.728H8.5201L8.5191 22.729C8.5281 22.729 8.5371 22.729 8.5471 22.729H18.2011C18.2291 22.73 18.2581 22.73 18.2871 22.729H24.7161C24.7451 22.73 24.7741 22.73 24.8021 22.729H34.4681C34.4771 22.729 34.4861 22.729 34.4951 22.729H41.1951V26.593C41.1951 27.492 40.4991 28.189 39.6111 28.189H3.3961C2.5091 28.189 1.8131 27.492 1.8131 26.593L1.8091 22.728ZM17.1101 29.648H25.8911L27.8771 34.769H15.1231L17.1101 29.648Z" fill="#F47722"/>
</svg>
