<svg width="44" height="33" viewBox="0 0 44 33" fill="none" xmlns="http://www.w3.org/2000/svg">
<path fill-rule="evenodd" clip-rule="evenodd" d="M39.7978 26.1739V12.4429H39.7848L43.9708 10.5039L21.0998 0.325928L0.0288086 10.5039L9.00181 14.6619V22.0189C9.00181 25.5689 14.7118 28.3489 21.0998 28.3489C29.2878 28.3489 34.9968 25.5689 34.9968 22.0189V14.6619L38.0318 13.2559V26.1739C36.6348 26.5619 35.6068 27.8429 35.6068 29.3619C35.6068 31.1869 37.0908 32.6729 38.9148 32.6729C40.7388 32.6729 42.2238 31.1869 42.2238 29.3619C42.2238 27.8429 41.1948 26.5619 39.7978 26.1739ZM21.0998 2.27393L39.7668 10.5039L21.0998 18.7349L4.23281 10.5039L21.0998 2.27393ZM33.2308 22.0189C33.2308 24.1769 28.6178 26.5809 21.0998 26.5809C15.3808 26.5809 10.7678 24.1759 10.7678 22.0189V15.4799L21.0998 20.6829L33.2308 15.4799V22.0189ZM38.9148 30.9059C38.0638 30.9059 37.3718 30.2129 37.3718 29.3619C37.3718 28.5109 38.0638 27.8189 38.9148 27.8189C39.7648 27.8189 40.4568 28.5099 40.4568 29.3619C40.4568 30.2129 39.7658 30.9059 38.9148 30.9059Z" fill="#F47722"/>
</svg>
