<svg width="245" height="53" viewBox="0 0 245 53" fill="none" xmlns="http://www.w3.org/2000/svg">
<path d="M36.6138 15.8239L21.4467 0.722168L6.28156 15.8218C-2.09385 24.1611 -2.09385 37.6819 6.28156 46.0212C14.657 54.3604 28.2364 54.3604 36.6138 46.0212C44.9893 37.6819 44.9893 24.1611 36.6138 15.8218V15.8239Z" fill="white"/>
<path d="M37.1897 30.7789C37.1897 22.1231 30.1423 15.104 21.4489 15.104C12.7555 15.104 5.70605 22.121 5.70605 30.7789C5.70605 39.4369 12.7535 46.4518 21.4489 46.4518C30.1444 46.4518 37.1897 39.4348 37.1897 30.7789Z" fill="url(#paint0_linear_115_96)"/>
<path d="M21.4468 21.6904L24.5227 30.0111L27.5964 38.3297L21.4468 36.0286L15.2993 38.3297L18.3731 30.0111L21.4468 21.6904Z" fill="white"/>
<path d="M69.1 29.9199L65.27 39.1999C63.88 42.5699 62.23 43.8099 59.2 43.8099H57.97V40.3499H58.96C59.97 40.3499 60.57 40.1199 61 39.4999L56 29.9199H60.37L62.98 35.6099L65 29.9199H69.11H69.1Z" fill="#F47723"/>
<path d="M83.7701 43.7299L82.6901 35.7699L79.0301 43.7499H77.9101L74.2501 35.7699L73.1901 43.7199H69.3301L71.4201 29.8999H75.2201L78.4701 37.4199L81.7401 29.8999H85.5401L87.6101 43.7199H83.7701V43.7299Z" fill="#F47723"/>
<path d="M101.71 29.9199V43.7399H97.8699V38.4399H93.7199V43.7399H89.8799V29.9199H93.7199V34.8999H97.8699V29.9199H101.71Z" fill="#F47723"/>
<path d="M113.16 41.4902H108.26L107.49 43.7302H103.41L108.84 29.9102H112.56L118.11 43.7302H113.92L113.16 41.4902ZM110.7 34.2302L109.19 38.5102H112.23L110.7 34.2302Z" fill="#F47723"/>
<path d="M130.36 29.9199V43.7399H126.6V39.4199H125.31L123.06 43.7399H118.8L121.54 38.7499C120.02 37.9899 119.12 36.5799 119.12 34.7999C119.12 31.9699 121.23 29.9299 124.2 29.9299H130.35L130.36 29.9199ZM126.6 36.3499V33.2799H124.76C123.76 33.2799 123.08 33.8899 123.08 34.7999C123.08 35.7099 123.76 36.3499 124.76 36.3499H126.6Z" fill="#F47723"/>
<path d="M151.76 43.7299L150.68 35.7699L147.02 43.7499H145.9L142.24 35.7699L141.18 43.7199H137.32L139.41 29.8999H143.21L146.46 37.4199L149.73 29.8999H153.53L155.6 43.7199H151.76V43.7299Z" fill="#1F2323"/>
<path d="M164.62 44.0801C160.18 44.0801 157.01 41.0501 157.01 36.8201C157.01 32.5901 160.18 29.5601 164.62 29.5601C169.06 29.5601 172.21 32.5801 172.21 36.8201C172.21 41.0601 169.05 44.0801 164.62 44.0801ZM164.62 40.5401C166.72 40.5401 168.24 38.9901 168.24 36.8201C168.24 34.6501 166.72 33.1001 164.62 33.1001C162.52 33.1001 160.97 34.6601 160.97 36.8201C160.97 38.9801 162.51 40.5401 164.62 40.5401Z" fill="#1F2323"/>
<path d="M186.74 29.91V43.73H183V36.37L177.5 43.73H174.55V29.91H178.29V37.31L183.75 29.91H186.74ZM177.53 26H183.87V28.58H177.53V26Z" fill="#1F2323"/>
<path d="M197.58 43.7299L193.62 37.6299V43.7299H189.81V29.9199H193.62V35.7399L197.27 29.9199H201.68L197.26 36.6099L202.1 43.7299H197.58Z" fill="#1F2323"/>
<path d="M211.97 41.4902H207.07L206.3 43.7302H202.22L207.65 29.9102H211.37L216.92 43.7302H212.73L211.97 41.4902ZM209.51 34.2302L208 38.5102H211.04L209.51 34.2302Z" fill="#1F2323"/>
<path d="M231.78 40.62V43.73H222.02V42.93C227.3 36.7 228.03 35.69 228.03 34.57C228.03 33.86 227.56 33.38 226.89 33.38C226.15 33.38 225.7 33.88 225.7 34.67V34.92H222.23V34.68C222.23 32.03 223.97 30.27 226.84 30.27C229.71 30.27 231.55 31.98 231.55 34.45C231.55 36.1 230.94 37.37 228.13 40.62H231.78Z" fill="#F47723"/>
<path d="M244.12 41.3801H242.93V43.7301H239.56V41.3701H233.26V40.7301L237.46 30.6001H240.95L237.7 38.4301H239.8L240.57 35.5401H242.93V38.4301H244.12V41.3801Z" fill="#F47723"/>
<path d="M60.242 20.168C59.1873 20.168 58.31 19.818 57.61 19.118C56.91 18.4087 56.56 17.536 56.56 16.5C56.56 15.464 56.91 14.596 57.61 13.896C58.31 13.1867 59.1873 12.832 60.242 12.832C60.9327 12.832 61.5533 13 62.104 13.336C62.6547 13.6627 63.056 14.106 63.308 14.666L62.552 15.1C62.3653 14.68 62.062 14.3487 61.642 14.106C61.2313 13.854 60.7647 13.728 60.242 13.728C59.4673 13.728 58.814 13.9987 58.282 14.54C57.75 15.072 57.484 15.7253 57.484 16.5C57.484 17.2747 57.75 17.9327 58.282 18.474C58.814 19.006 59.4673 19.272 60.242 19.272C60.7647 19.272 61.2313 19.1507 61.642 18.908C62.0527 18.656 62.3747 18.32 62.608 17.9L63.378 18.348C63.0887 18.908 62.664 19.3513 62.104 19.678C61.544 20.0047 60.9233 20.168 60.242 20.168ZM67.8703 12.832C68.9063 12.832 69.7416 13.2007 70.3763 13.938C71.0203 14.666 71.3423 15.5293 71.3423 16.528C71.3423 16.6307 71.3329 16.7753 71.3143 16.962H65.1683C65.2616 17.6713 65.5603 18.236 66.0643 18.656C66.5776 19.0667 67.2076 19.272 67.9543 19.272C68.4863 19.272 68.9436 19.1647 69.3263 18.95C69.7183 18.726 70.0123 18.4367 70.2083 18.082L71.0203 18.558C70.7123 19.0527 70.2923 19.4447 69.7603 19.734C69.2283 20.0233 68.6216 20.168 67.9403 20.168C66.8389 20.168 65.9429 19.8227 65.2523 19.132C64.5616 18.4413 64.2163 17.564 64.2163 16.5C64.2163 15.4547 64.5569 14.582 65.2383 13.882C65.9196 13.182 66.7969 12.832 67.8703 12.832ZM67.8703 13.728C67.1423 13.728 66.5309 13.9473 66.0363 14.386C65.5509 14.8153 65.2616 15.3753 65.1683 16.066H70.3903C70.2969 15.3287 70.0123 14.7547 69.5363 14.344C69.0603 13.9333 68.5049 13.728 67.8703 13.728ZM77.5786 13V13.896H75.1006V20H74.1766V13.896H71.6986V13H77.5786ZM81.5466 15.66C82.1999 15.66 82.7506 15.8653 83.1986 16.276C83.6559 16.6773 83.8846 17.1953 83.8846 17.83C83.8846 18.4647 83.6559 18.9873 83.1986 19.398C82.7506 19.7993 82.1999 20 81.5466 20H78.7046V13H79.6286V15.66H81.5466ZM81.5466 19.104C81.9386 19.104 82.2699 18.9873 82.5406 18.754C82.8206 18.5207 82.9606 18.2127 82.9606 17.83C82.9606 17.4473 82.8206 17.1393 82.5406 16.906C82.2699 16.6727 81.9386 16.556 81.5466 16.556H79.6286V19.104H81.5466ZM92.5328 12.832C93.5314 12.832 94.3808 13.1867 95.0808 13.896C95.7901 14.6053 96.1448 15.4733 96.1448 16.5C96.1448 17.5267 95.7901 18.3947 95.0808 19.104C94.3808 19.8133 93.5314 20.168 92.5328 20.168C91.2914 20.168 90.3488 19.6547 89.7048 18.628V22.8H88.7808V13H89.7048V14.372C90.3488 13.3453 91.2914 12.832 92.5328 12.832ZM90.5028 18.474C91.0348 19.006 91.6881 19.272 92.4628 19.272C93.2374 19.272 93.8908 19.006 94.4228 18.474C94.9548 17.9327 95.2208 17.2747 95.2208 16.5C95.2208 15.7253 94.9548 15.072 94.4228 14.54C93.8908 13.9987 93.2374 13.728 92.4628 13.728C91.6881 13.728 91.0348 13.9987 90.5028 14.54C89.9708 15.072 89.7048 15.7253 89.7048 16.5C89.7048 17.2747 89.9708 17.9327 90.5028 18.474ZM103.547 19.118C102.838 19.818 101.97 20.168 100.943 20.168C99.9165 20.168 99.0438 19.818 98.3252 19.118C97.6158 18.4087 97.2612 17.536 97.2612 16.5C97.2612 15.464 97.6158 14.596 98.3252 13.896C99.0438 13.1867 99.9165 12.832 100.943 12.832C101.97 12.832 102.838 13.1867 103.547 13.896C104.266 14.596 104.625 15.464 104.625 16.5C104.625 17.536 104.266 18.4087 103.547 19.118ZM98.9832 18.474C99.5152 19.006 100.169 19.272 100.943 19.272C101.718 19.272 102.371 19.006 102.903 18.474C103.435 17.9327 103.701 17.2747 103.701 16.5C103.701 15.7253 103.435 15.072 102.903 14.54C102.371 13.9987 101.718 13.728 100.943 13.728C100.169 13.728 99.5152 13.9987 98.9832 14.54C98.4512 15.072 98.1852 15.7253 98.1852 16.5C98.1852 17.2747 98.4512 17.9327 98.9832 18.474ZM109.279 20.168C108.271 20.168 107.431 19.8367 106.759 19.174C106.087 18.502 105.751 17.634 105.751 16.57C105.751 15.3753 105.929 14.4607 106.283 13.826C106.638 13.182 107.357 12.5987 108.439 12.076C108.645 11.9733 108.915 11.852 109.251 11.712C109.597 11.572 109.853 11.46 110.021 11.376C110.199 11.292 110.39 11.1847 110.595 11.054C110.801 10.914 110.955 10.76 111.057 10.592C111.16 10.424 111.225 10.2233 111.253 9.99L111.981 10.41C111.944 10.634 111.869 10.844 111.757 11.04C111.645 11.236 111.529 11.3947 111.407 11.516C111.295 11.6373 111.113 11.7727 110.861 11.922C110.619 12.062 110.427 12.1647 110.287 12.23C110.157 12.286 109.923 12.384 109.587 12.524C109.261 12.664 109.041 12.7573 108.929 12.804C108.276 13.084 107.795 13.378 107.487 13.686C107.179 13.9847 106.96 14.3767 106.829 14.862C107.147 14.442 107.548 14.134 108.033 13.938C108.528 13.7327 109.009 13.63 109.475 13.63C110.409 13.63 111.179 13.938 111.785 14.554C112.401 15.1607 112.709 15.94 112.709 16.892C112.709 17.8347 112.383 18.6187 111.729 19.244C111.085 19.86 110.269 20.168 109.279 20.168ZM109.279 19.244C110.007 19.244 110.605 19.0247 111.071 18.586C111.547 18.138 111.785 17.5733 111.785 16.892C111.785 16.2013 111.561 15.6367 111.113 15.198C110.675 14.75 110.087 14.526 109.349 14.526C108.687 14.526 108.085 14.736 107.543 15.156C107.002 15.5667 106.731 16.1173 106.731 16.808C106.731 17.5173 106.974 18.1007 107.459 18.558C107.954 19.0153 108.561 19.244 109.279 19.244ZM119.981 19.118C119.271 19.818 118.403 20.168 117.377 20.168C116.35 20.168 115.477 19.818 114.759 19.118C114.049 18.4087 113.695 17.536 113.695 16.5C113.695 15.464 114.049 14.596 114.759 13.896C115.477 13.1867 116.35 12.832 117.377 12.832C118.403 12.832 119.271 13.1867 119.981 13.896C120.699 14.596 121.059 15.464 121.059 16.5C121.059 17.536 120.699 18.4087 119.981 19.118ZM115.417 18.474C115.949 19.006 116.602 19.272 117.377 19.272C118.151 19.272 118.805 19.006 119.337 18.474C119.869 17.9327 120.135 17.2747 120.135 16.5C120.135 15.7253 119.869 15.072 119.337 14.54C118.805 13.9987 118.151 13.728 117.377 13.728C116.602 13.728 115.949 13.9987 115.417 14.54C114.885 15.072 114.619 15.7253 114.619 16.5C114.619 17.2747 114.885 17.9327 115.417 18.474ZM127.372 13V13.896H124.894V20H123.97V13.896H121.492V13H127.372ZM128.214 16.122V15.226H133.254V16.122H128.214ZM141.367 13H142.291V20H141.367V18.628C140.723 19.6547 139.781 20.168 138.539 20.168C137.541 20.168 136.687 19.8133 135.977 19.104C135.277 18.3947 134.927 17.5267 134.927 16.5C134.927 15.4733 135.277 14.6053 135.977 13.896C136.687 13.1867 137.541 12.832 138.539 12.832C139.781 12.832 140.723 13.3453 141.367 14.372V13ZM136.649 18.474C137.181 19.006 137.835 19.272 138.609 19.272C139.384 19.272 140.037 19.006 140.569 18.474C141.101 17.9327 141.367 17.2747 141.367 16.5C141.367 15.7253 141.101 15.072 140.569 14.54C140.037 13.9987 139.384 13.728 138.609 13.728C137.835 13.728 137.181 13.9987 136.649 14.54C136.117 15.072 135.851 15.7253 135.851 16.5C135.851 17.2747 136.117 17.9327 136.649 18.474ZM148.7 16.402C149.465 16.682 149.848 17.228 149.848 18.04C149.848 18.6093 149.656 19.0807 149.274 19.454C148.9 19.818 148.359 20 147.65 20H144.248V13H147.37C148.051 13 148.578 13.1773 148.952 13.532C149.325 13.8773 149.512 14.3253 149.512 14.876C149.512 15.576 149.241 16.0847 148.7 16.402ZM147.37 13.896H145.172V16.024H147.37C148.182 16.024 148.588 15.66 148.588 14.932C148.588 14.6053 148.48 14.3533 148.266 14.176C148.06 13.9893 147.762 13.896 147.37 13.896ZM147.65 19.104C148.06 19.104 148.373 19.006 148.588 18.81C148.812 18.614 148.924 18.3387 148.924 17.984C148.924 17.6573 148.812 17.4007 148.588 17.214C148.373 17.018 148.06 16.92 147.65 16.92H145.172V19.104H147.65ZM156.014 13V13.896H153.536V20H152.612V13.896H150.134V13H156.014ZM162.733 19.118C162.023 19.818 161.155 20.168 160.129 20.168C159.102 20.168 158.229 19.818 157.511 19.118C156.801 18.4087 156.447 17.536 156.447 16.5C156.447 15.464 156.801 14.596 157.511 13.896C158.229 13.1867 159.102 12.832 160.129 12.832C161.155 12.832 162.023 13.1867 162.733 13.896C163.451 14.596 163.811 15.464 163.811 16.5C163.811 17.536 163.451 18.4087 162.733 19.118ZM158.169 18.474C158.701 19.006 159.354 19.272 160.129 19.272C160.903 19.272 161.557 19.006 162.089 18.474C162.621 17.9327 162.887 17.2747 162.887 16.5C162.887 15.7253 162.621 15.072 162.089 14.54C161.557 13.9987 160.903 13.728 160.129 13.728C159.354 13.728 158.701 13.9987 158.169 14.54C157.637 15.072 157.371 15.7253 157.371 16.5C157.371 17.2747 157.637 17.9327 158.169 18.474ZM172.217 13V20H171.293V14.414L168.843 18.39H168.731L166.281 14.414V20H165.357V13H166.421L168.787 16.836L171.153 13H172.217ZM180.041 19.118C179.332 19.818 178.464 20.168 177.437 20.168C176.411 20.168 175.538 19.818 174.819 19.118C174.11 18.4087 173.755 17.536 173.755 16.5C173.755 15.464 174.11 14.596 174.819 13.896C175.538 13.1867 176.411 12.832 177.437 12.832C178.464 12.832 179.332 13.1867 180.041 13.896C180.76 14.596 181.119 15.464 181.119 16.5C181.119 17.536 180.76 18.4087 180.041 19.118ZM175.477 18.474C176.009 19.006 176.663 19.272 177.437 19.272C178.212 19.272 178.865 19.006 179.397 18.474C179.929 17.9327 180.195 17.2747 180.195 16.5C180.195 15.7253 179.929 15.072 179.397 14.54C178.865 13.9987 178.212 13.728 177.437 13.728C176.663 13.728 176.009 13.9987 175.477 14.54C174.945 15.072 174.679 15.7253 174.679 16.5C174.679 17.2747 174.945 17.9327 175.477 18.474ZM185.9 12.832C186.936 12.832 187.771 13.2007 188.406 13.938C189.05 14.666 189.372 15.5293 189.372 16.528C189.372 16.6307 189.362 16.7753 189.344 16.962H183.198C183.291 17.6713 183.59 18.236 184.094 18.656C184.607 19.0667 185.237 19.272 185.984 19.272C186.516 19.272 186.973 19.1647 187.356 18.95C187.748 18.726 188.042 18.4367 188.238 18.082L189.05 18.558C188.742 19.0527 188.322 19.4447 187.79 19.734C187.258 20.0233 186.651 20.168 185.97 20.168C184.868 20.168 183.972 19.8227 183.282 19.132C182.591 18.4413 182.246 17.564 182.246 16.5C182.246 15.4547 182.586 14.582 183.268 13.882C183.949 13.182 184.826 12.832 185.9 12.832ZM185.9 13.728C185.172 13.728 184.56 13.9473 184.066 14.386C183.58 14.8153 183.291 15.3753 183.198 16.066H188.42C188.326 15.3287 188.042 14.7547 187.566 14.344C187.09 13.9333 186.534 13.728 185.9 13.728ZM196.497 20H195.265L191.765 16.626V20H190.841V13H191.765V16.094L195.097 13H196.357L192.745 16.36L196.497 20Z" fill="#1F2323"/>
<defs>
<linearGradient id="paint0_linear_115_96" x1="21.4489" y1="33.318" x2="21.4489" y2="12.6229" gradientUnits="userSpaceOnUse">
<stop stop-color="#F15C29"/>
<stop offset="0.05" stop-color="#F16227"/>
<stop offset="0.25" stop-color="#F37424"/>
<stop offset="0.46" stop-color="#F48021"/>
<stop offset="0.68" stop-color="#F58421"/>
</linearGradient>
</defs>
</svg>
