<svg width="252" height="53" viewBox="0 0 252 53" fill="none" xmlns="http://www.w3.org/2000/svg">
<path d="M36.6138 15.8239L21.4467 0.722168L6.28156 15.8218C-2.09385 24.1611 -2.09385 37.6819 6.28156 46.0212C14.657 54.3604 28.2364 54.3604 36.6138 46.0212C44.9893 37.6819 44.9893 24.1611 36.6138 15.8218V15.8239Z" fill="white"/>
<path d="M37.1897 30.7788C37.1897 22.1229 30.1423 15.1039 21.4489 15.1039C12.7555 15.1039 5.70605 22.1209 5.70605 30.7788C5.70605 39.4368 12.7535 46.4517 21.4489 46.4517C30.1444 46.4517 37.1897 39.4347 37.1897 30.7788Z" fill="url(#paint0_linear_116_53)"/>
<path d="M21.4468 21.6903L24.5227 30.011L27.5964 38.3295L21.4468 36.0285L15.2993 38.3295L18.3731 30.011L21.4468 21.6903Z" fill="white"/>
<path d="M76.13 20.92L72.29 30.22C70.89 33.6 69.24 34.84 66.2 34.84H64.97V31.37H65.96C66.97 31.37 67.57 31.14 68.01 30.52L63 20.92H67.38L69.99 26.63L72.01 20.92H76.13Z" fill="#F47723"/>
<path d="M90.8301 34.7701L89.7501 26.8001L86.0801 34.8001H84.9501L81.2801 26.8101L80.2101 34.7801H76.3401L78.4301 20.9301H82.2401L85.5001 28.4601L88.7801 20.9301H92.5901L94.6601 34.7801H90.8101L90.8301 34.7701Z" fill="#F47723"/>
<path d="M108.81 20.92V34.77H104.96V29.45H100.8V34.77H96.95V20.92H100.8V25.92H104.96V20.92H108.81Z" fill="#F47723"/>
<path d="M120.29 32.52H115.38L114.61 34.77H110.52L115.96 20.92H119.69L125.25 34.77H121.05L120.29 32.52ZM117.83 25.24L116.31 29.53H119.36L117.83 25.24Z" fill="#F47723"/>
<path d="M137.53 20.92V34.77H133.77V30.44H132.48L130.22 34.77H125.95L128.7 29.77C127.18 29.01 126.28 27.6 126.28 25.81C126.28 22.97 128.4 20.93 131.37 20.93H137.54L137.53 20.92ZM133.77 27.36V24.28H131.93C130.92 24.28 130.25 24.89 130.25 25.8C130.25 26.71 130.93 27.36 131.93 27.36H133.77Z" fill="#F47723"/>
<path d="M158.98 34.7701L157.9 26.8001L154.23 34.8001H153.1L149.43 26.8101L148.36 34.7801H144.49L146.58 20.9301H150.39L153.65 28.4601L156.93 20.9301H160.74L162.81 34.7801H158.96L158.98 34.7701Z" fill="white"/>
<path d="M171.87 35.12C167.42 35.12 164.24 32.08 164.24 27.85C164.24 23.62 167.42 20.58 171.87 20.58C176.32 20.58 179.48 23.61 179.48 27.85C179.48 32.09 176.31 35.12 171.87 35.12ZM171.87 31.57C173.98 31.57 175.5 30.01 175.5 27.85C175.5 25.69 173.97 24.13 171.87 24.13C169.77 24.13 168.21 25.7 168.21 27.85C168.21 30 169.76 31.57 171.87 31.57Z" fill="white"/>
<path d="M194.04 20.92V34.77H190.29V27.39L184.78 34.77H181.82V20.92H185.57V28.34L191.05 20.92H194.04ZM184.81 17H191.16V19.58H184.81V17Z" fill="white"/>
<path d="M204.9 34.77L200.93 28.65V34.77H197.12V20.92H200.93V26.76L204.59 20.92H209.01L204.58 27.63L209.43 34.77H204.9Z" fill="white"/>
<path d="M219.32 32.52H214.41L213.64 34.77H209.55L214.99 20.92H218.72L224.28 34.77H220.08L219.32 32.52ZM216.86 25.24L215.34 29.53H218.39L216.86 25.24Z" fill="white"/>
<path d="M239.18 31.65V34.77H229.4V33.97C234.69 27.73 235.42 26.72 235.42 25.59C235.42 24.88 234.95 24.4 234.28 24.4C233.54 24.4 233.09 24.9 233.09 25.69V25.94H229.61V25.7C229.61 23.04 231.35 21.28 234.23 21.28C237.11 21.28 238.95 23 238.95 25.47C238.95 27.13 238.34 28.4 235.52 31.66H239.18V31.65Z" fill="#F47723"/>
<path d="M251.55 32.41H250.36V34.77H246.98V32.41H240.66V31.77L244.87 21.62H248.36L245.1 29.46H247.2L247.97 26.56H250.34V29.46H251.53V32.41H251.55Z" fill="#F47723"/>
<defs>
<linearGradient id="paint0_linear_116_53" x1="21.4489" y1="33.3178" x2="21.4489" y2="12.6228" gradientUnits="userSpaceOnUse">
<stop stop-color="#F15C29"/>
<stop offset="0.05" stop-color="#F16227"/>
<stop offset="0.25" stop-color="#F37424"/>
<stop offset="0.46" stop-color="#F48021"/>
<stop offset="0.68" stop-color="#F58421"/>
</linearGradient>
</defs>
</svg>
