<svg width="38" height="38" viewBox="0 0 38 38" fill="none" xmlns="http://www.w3.org/2000/svg">
<g clip-path="url(#clip0_82_5649)">
<path d="M32.3941 12.6722L17.742 1.69176C16.5976 0.835309 15.2435 0.319457 13.8297 0.20138C12.416 0.0833028 10.9979 0.367612 9.73262 1.02279C8.46733 1.67798 7.40427 2.67844 6.66127 3.91329C5.91827 5.14813 5.52436 6.56913 5.5232 8.01877V29.9906C5.521 31.4417 5.91285 32.8649 6.65514 34.1018C7.39743 35.3388 8.46103 36.341 9.72757 36.9968C10.9941 37.6526 12.4139 37.9364 13.8288 37.8165C15.2438 37.6965 16.5984 37.1777 17.742 36.3176L32.3941 25.3372C33.3663 24.608 34.1569 23.6551 34.7018 22.5557C35.2467 21.4562 35.5306 20.2411 35.5306 19.0086C35.5306 17.7762 35.2467 16.561 34.7018 15.4616C34.1569 14.3621 33.3663 13.4092 32.3941 12.68V12.6722Z" fill="#056CF2"/>
</g>
<defs>
<clipPath id="clip0_82_5649">
<rect width="36.8683" height="37.6795" fill="white" transform="translate(0.914795 0.160278)"/>
</clipPath>
</defs>
</svg>
